<?xml version="1.0" encoding="utf-8"?>
<!-- Generator: Adobe Illustrator 16.0.4, SVG Export Plug-In . SVG Version: 6.00 Build 0)  -->
<!DOCTYPE svg PUBLIC "-//W3C//DTD SVG 1.1//EN" "http://www.w3.org/Graphics/SVG/1.1/DTD/svg11.dtd">
<svg version="1.1" id="Layer_1" xmlns="http://www.w3.org/2000/svg" xmlns:xlink="http://www.w3.org/1999/xlink" x="0px" y="0px"
	 width="500px" height="500px" viewBox="0 0 500 500" enable-background="new 0 0 500 500" xml:space="preserve">
<circle fill="none" stroke="#4C567A" stroke-width="18" stroke-miterlimit="10" cx="250.226" cy="249.824" r="237.156"/>
<g>
	<path fill-rule="evenodd" clip-rule="evenodd" fill="#4C567A" d="M150.017,226.362c-2.528-0.737-5.004-1.267-7.332-2.177
		c-4.603-1.799-6.733-6.195-5.354-10.598c1.125-3.595,5.69-5.717,10.2-4.642c4.734,1.128,9.446,2.354,13.176,3.289
		c6.969-10.527,13.309-20.722,20.312-30.438c3.841-5.33,8.618-10.042,13.356-14.636c1.612-1.563,4.394-2.691,6.648-2.703
		c32.838-0.17,65.678-0.187,98.516,0.023c2.449,0.015,5.421,1.462,7.242,3.197c12.564,11.967,22.762,25.733,30.273,41.428
		c0.509,1.061,1.105,2.079,1.863,3.494c4.72-1.205,9.424-2.397,14.123-3.609c4.971-1.282,9.067,0.71,10.518,5.136
		c1.403,4.284-0.955,8.58-5.747,10.214c-2.606,0.889-5.29,1.556-7.772,2.275c3.73,6.03,7.726,11.732,10.936,17.847
		c5.427,10.332,8.409,21.383,7.888,33.195c-0.279,6.332-0.081,12.734-0.985,18.977c-1.034,7.139-5.16,12.754-11.459,16.349
		c-2.619,1.494-3.409,3.25-3.213,6.046c0.193,2.766,0.167,5.569-0.032,8.336c-0.352,4.877-3.354,7.79-8.234,7.872
		c-7.148,0.12-14.301,0.114-21.45,0.007c-5.378-0.081-8.301-3.079-8.456-8.405c-0.064-2.229-0.011-4.462-0.011-6.944
		c-43.079,0-85.796,0-129.193,0c0,1.834,0.044,3.748-0.008,5.659c-0.185,6.762-3.104,9.677-9.771,9.714
		c-6.488,0.036-12.977,0.047-19.465-0.005c-6.025-0.047-9.454-2.968-9.096-8.964c0.425-7.136-0.661-12.612-7.528-16.768
		c-5.087-3.079-7.323-9.183-7.787-15.093c-1.452-18.509-1.132-36.871,8.44-53.648C143.405,235.897,146.758,231.329,150.017,226.362z
		 M249.884,303.394c25.683,0,51.367,0.155,77.046-0.116c6.003-0.063,12.066-1.225,17.959-2.528c4.716-1.043,7.686-4.768,7.646-9.518
		c-0.077-9.216,0.132-18.622-1.619-27.59c-2.208-11.301-7.667-21.492-17.131-28.696c-2.42-1.843-6.066-3.26-9.002-3.024
		c-10.269,0.824-20.448,2.706-30.706,3.738c-38.521,3.875-76.918,2.536-115.119-3.602c-6.152-0.989-11.336,0.318-15.135,4.698
		c-4.106,4.734-7.765,10.034-10.699,15.574c-6.539,12.348-5.698,25.898-5.07,39.263c0.208,4.432,2.881,7.999,7.257,8.99
		c6.01,1.361,12.196,2.618,18.322,2.688C199.046,303.563,224.466,303.394,249.884,303.394z M178.307,215.726
		c48.311,7.677,95.869,8,143.986-0.018c-6.493-13.25-14.537-24.153-24.137-33.925c-0.779-0.792-2.329-1.161-3.522-1.164
		c-29.505-0.062-59.012-0.062-88.518-0.004c-1.203,0.002-2.776,0.299-3.55,1.079C192.827,191.516,184.75,202.542,178.307,215.726z"
		/>
	<path fill-rule="evenodd" clip-rule="evenodd" fill="#4C567A" d="M251.409,271.24c8.589,0,17.178-0.02,25.767,0.006
		c5.478,0.017,8.886,3.04,8.953,7.858c0.067,4.81-3.259,8.132-8.714,8.162c-17.573,0.095-35.149,0.092-52.723,0.003
		c-5.494-0.028-8.756-3.258-8.718-8.116c0.038-4.882,3.365-7.886,8.875-7.905C233.702,271.217,242.555,271.24,251.409,271.24z"/>
	<path fill-rule="evenodd" clip-rule="evenodd" fill="#4C567A" d="M180.404,271.619c3.833,0,7.667-0.08,11.497,0.021
		c4.666,0.121,7.936,3.154,8.235,7.448c0.294,4.207-2.583,8.177-7.193,8.396c-8.426,0.401-16.898,0.385-25.324-0.019
		c-4.545-0.219-7.424-4.279-7.065-8.485c0.366-4.279,3.639-7.227,8.353-7.342C172.738,271.543,176.572,271.618,180.404,271.619z"/>
	<path fill-rule="evenodd" clip-rule="evenodd" fill="#4C567A" d="M320.279,287.836c-3.567,0-7.14,0.116-10.701-0.026
		c-5.675-0.229-9.205-3.558-9.105-8.364c0.098-4.798,3.68-7.793,9.467-7.822c7.003-0.036,14.006-0.042,21.009,0.002
		c5.444,0.034,9.009,3.125,9.129,7.795c0.118,4.59-3.357,8.066-8.702,8.363c-3.688,0.205-7.396,0.039-11.096,0.039
		C320.279,287.827,320.279,287.832,320.279,287.836z"/>
</g>
</svg>
