<?xml version="1.0" encoding="utf-8"?>
<!-- Generator: Adobe Illustrator 16.0.4, SVG Export Plug-In . SVG Version: 6.00 Build 0)  -->
<!DOCTYPE svg PUBLIC "-//W3C//DTD SVG 1.1//EN" "http://www.w3.org/Graphics/SVG/1.1/DTD/svg11.dtd">
<svg version="1.1" id="Layer_1" xmlns="http://www.w3.org/2000/svg" xmlns:xlink="http://www.w3.org/1999/xlink" x="0px" y="0px"
	 width="35px" height="35px" viewBox="0 0 35 35" enable-background="new 0 0 35 35" xml:space="preserve">
<g>
	<path fill="#252160" d="M20.936,14.161c-2.153,0-4.282,0-6.529,0c0,0.315,0.014,0.63-0.002,0.942
		c-0.056,1.14-0.76,1.837-1.884,1.881c-0.944,0.039-1.886,0.092-2.831,0.112c-1.127,0.021-1.87-0.65-1.999-1.773
		c-0.296-2.583,0.539-4.168,2.886-5.317c2.936-1.44,6.072-1.583,9.253-1.328c1.696,0.136,3.354,0.486,4.872,1.28
		c0.694,0.364,1.368,0.822,1.937,1.362c1.363,1.291,1.227,2.963,0.908,4.595c-0.149,0.767-0.892,1.196-1.702,1.182
		c-1.067-0.018-2.138-0.059-3.204-0.127c-0.841-0.053-1.481-0.698-1.616-1.592C20.966,14.989,20.965,14.594,20.936,14.161z
		 M24.418,15.563c0.001-0.017,0.004-0.033,0.005-0.049c0.423,0.02,0.849,0.081,1.264,0.038c0.179-0.019,0.444-0.234,0.48-0.401
		c0.348-1.628-0.11-2.67-1.556-3.526c-0.509-0.301-1.058-0.561-1.619-0.748c-2.822-0.943-5.719-1.016-8.614-0.489
		c-1.158,0.211-2.315,0.61-3.374,1.125c-1.588,0.777-2.044,1.812-1.778,3.546c0.03,0.192,0.345,0.464,0.548,0.486
		c0.515,0.05,1.042-0.024,1.562-0.041c1.499-0.044,1.499-0.042,1.556-1.566c0.003-0.102,0.003-0.201,0.017-0.298
		c0.093-0.655,0.429-1.034,1.132-1.032c2.436,0.004,4.872-0.007,7.309,0.007c0.748,0.004,1.093,0.349,1.16,1.075
		c0.054,0.558-0.103,1.346,0.2,1.616C23.076,15.626,23.831,15.499,24.418,15.563z"/>
	<path fill="#252160" d="M10.385,17.87c0.536,0,0.999,0,1.528,0c-0.203,1.688-0.401,3.331-0.6,4.976
		c-0.029,0.246-0.068,0.492-0.09,0.738c-0.1,1.107,0.391,1.686,1.524,1.691c3.306,0.021,6.612,0.022,9.918,0
		c1.153-0.008,1.643-0.645,1.498-1.788c-0.234-1.847-0.458-3.693-0.686-5.523c0.081-0.05,0.121-0.096,0.162-0.1
		c1.329-0.129,1.33-0.129,1.493,1.164c0.191,1.527,0.406,3.052,0.563,4.584c0.178,1.742-1.011,3.148-2.766,3.171
		c-3.479,0.047-6.96,0.044-10.44,0.002c-1.826-0.02-3.002-1.473-2.786-3.288C9.925,21.646,10.151,19.801,10.385,17.87z"/>
	<path fill="#252160" d="M17.665,21.696c-0.729,0.16-0.76-0.268-0.794-0.843c-0.042-0.719,0.305-0.768,0.882-0.795
		c0.743-0.037,0.751,0.354,0.77,0.909C18.545,21.626,18.251,21.802,17.665,21.696z"/>
	<path fill="#252160" d="M20.786,20.974c0.16,0.79-0.366,0.716-0.89,0.752c-0.707,0.046-0.701-0.354-0.736-0.876
		c-0.05-0.726,0.321-0.761,0.894-0.791C20.804,20.021,20.866,20.41,20.786,20.974z"/>
	<path fill="#252160" d="M20.008,23.983c-0.672,0.144-0.854-0.168-0.853-0.813c0.002-0.615,0.193-0.806,0.816-0.817
		c0.662-0.011,0.861,0.198,0.844,0.853C20.804,23.802,20.67,24.123,20.008,23.983z"/>
	<path fill="#252160" d="M17.729,17.785c0.656-0.127,0.776,0.207,0.796,0.792c0.024,0.686-0.246,0.813-0.868,0.831
		c-0.731,0.022-0.762-0.328-0.787-0.898C16.839,17.813,17.169,17.703,17.729,17.785z"/>
	<path fill="#252160" d="M16.906,23.18c-0.167-0.717,0.227-0.81,0.83-0.825c0.649-0.019,0.771,0.256,0.791,0.837
		c0.025,0.689-0.251,0.824-0.875,0.829C17.007,24.026,16.784,23.796,16.906,23.18z"/>
	<path fill="#252160" d="M15.362,19.37c-0.66,0.134-0.802-0.181-0.819-0.78c-0.019-0.68,0.252-0.828,0.874-0.838
		c0.643-0.009,0.791,0.23,0.798,0.824C16.222,19.23,16.022,19.52,15.362,19.37z"/>
	<path fill="#252160" d="M20.627,17.998c0.269,0.615,0.179,0.99-0.102,1.309c-0.17,0.197-0.984,0.137-1.201-0.096
		c-0.222-0.241-0.247-1.062-0.044-1.213C19.628,17.739,20.463,17.626,20.627,17.998z"/>
	<path fill="#252160" d="M15.399,20.096c0.727-0.173,0.801,0.239,0.812,0.825c0.011,0.602-0.17,0.817-0.803,0.812
		c-0.632-0.007-0.876-0.172-0.865-0.835C14.555,20.261,14.723,19.948,15.399,20.096z"/>
	<path fill="#252160" d="M16.181,23.224c0.139,0.688-0.235,0.767-0.803,0.797c-0.698,0.034-0.823-0.262-0.833-0.876
		c-0.01-0.652,0.259-0.779,0.843-0.792C16.069,22.336,16.301,22.595,16.181,23.224z"/>
</g>
<path fill-rule="evenodd" clip-rule="evenodd" fill="#808080" d="M-25.951,25.566c0-2.888,0-5.752,0-8.656c0.824,0,1.608,0,2.398,0
	c0.086-0.971,0.167-1.903,0.251-2.865c-0.899,0-1.762,0-2.642,0c0-0.708-0.016-1.387,0.006-2.064
	c0.01-0.317,0.208-0.523,0.542-0.539c0.378-0.019,0.757-0.021,1.136-0.026c0.31-0.004,0.622,0,0.948,0c0-1.006,0-1.964,0-2.995
	c-1.318,0.057-2.622-0.134-3.901,0.183c-1.342,0.331-2.114,1.285-2.177,2.686c-0.035,0.8-0.014,1.601-0.017,2.403
	c-0.001,0.114,0,0.228,0,0.373c-0.632,0-1.212,0-1.789,0c0,0.978,0,1.926,0,2.91c0.6,0,1.18,0,1.798,0c0,2.888,0,5.742,0,8.592
	C-28.233,25.566-27.112,25.566-25.951,25.566z"/>
<g>
	<path fill="#808080" d="M-26.72,32.642c-9,0-16.321-7.323-16.321-16.322S-35.719,0-26.72,0c8.999,0,16.32,7.321,16.32,16.32
		S-17.721,32.642-26.72,32.642z M-26.72,3.144c-7.264,0-13.174,5.91-13.174,13.176c0,7.264,5.91,13.174,13.174,13.174
		c7.265,0,13.175-5.91,13.175-13.174C-13.545,9.054-19.455,3.144-26.72,3.144z"/>
</g>
<g>
	<path fill="#252160" d="M17.616,34.125c-9.102,0-16.507-7.404-16.507-16.506c0-9.104,7.405-16.509,16.507-16.509
		c9.103,0,16.509,7.405,16.509,16.509C34.125,26.721,26.719,34.125,17.616,34.125z M17.616,4.292
		C10.27,4.292,4.29,10.27,4.29,17.619c0,7.346,5.979,13.324,13.326,13.324c7.349,0,13.326-5.979,13.326-13.324
		C30.942,10.27,24.965,4.292,17.616,4.292z"/>
</g>
</svg>
