<?xml version="1.0" encoding="utf-8"?>
<!-- Generator: Adobe Illustrator 16.0.4, SVG Export Plug-In . SVG Version: 6.00 Build 0)  -->
<!DOCTYPE svg PUBLIC "-//W3C//DTD SVG 1.1//EN" "http://www.w3.org/Graphics/SVG/1.1/DTD/svg11.dtd">
<svg version="1.1" id="Layer_1" xmlns="http://www.w3.org/2000/svg" xmlns:xlink="http://www.w3.org/1999/xlink" x="0px" y="0px"
	 width="35px" height="35px" viewBox="0 0 35 35" enable-background="new 0 0 35 35" xml:space="preserve">
<g>
	<path fill="#808080" d="M20.96,13.604c-2.128,0-4.232,0-6.455,0c0,0.312,0.013,0.624-0.002,0.932
		c-0.055,1.126-0.751,1.816-1.863,1.86c-0.934,0.038-1.865,0.091-2.798,0.11c-1.115,0.021-1.849-0.643-1.976-1.753
		c-0.293-2.553,0.532-4.121,2.854-5.257c2.902-1.423,6.003-1.565,9.147-1.313c1.677,0.134,3.315,0.481,4.816,1.265
		c0.687,0.36,1.353,0.813,1.915,1.347c1.348,1.276,1.213,2.93,0.898,4.543c-0.148,0.758-0.882,1.182-1.684,1.168
		c-1.056-0.018-2.113-0.059-3.168-0.126c-0.83-0.052-1.464-0.69-1.598-1.574C20.99,14.423,20.989,14.033,20.96,13.604z
		 M24.403,14.991c0.001-0.016,0.004-0.032,0.005-0.048c0.418,0.02,0.839,0.08,1.249,0.038c0.177-0.018,0.439-0.232,0.476-0.396
		c0.343-1.609-0.109-2.64-1.538-3.485c-0.503-0.298-1.046-0.555-1.601-0.739c-2.791-0.932-5.654-1.004-8.517-0.483
		c-1.145,0.208-2.288,0.604-3.335,1.112c-1.57,0.768-2.021,1.792-1.757,3.505c0.029,0.19,0.34,0.459,0.541,0.481
		c0.509,0.049,1.03-0.024,1.544-0.041c1.482-0.044,1.482-0.042,1.539-1.549c0.003-0.101,0.003-0.199,0.017-0.295
		c0.092-0.647,0.424-1.022,1.119-1.02c2.408,0.004,4.816-0.006,7.226,0.008c0.74,0.004,1.081,0.345,1.147,1.062
		c0.053,0.552-0.102,1.331,0.198,1.598C23.076,15.053,23.823,14.927,24.403,14.991z"/>
	<path fill="#808080" d="M10.529,17.271c0.53,0,0.987,0,1.511,0c-0.201,1.669-0.396,3.293-0.593,4.919
		c-0.029,0.244-0.067,0.486-0.089,0.73c-0.099,1.095,0.386,1.666,1.507,1.672c3.268,0.02,6.536,0.021,9.805,0
		c1.141-0.008,1.625-0.638,1.481-1.769c-0.232-1.825-0.453-3.65-0.678-5.459c0.08-0.05,0.119-0.096,0.16-0.1
		c1.314-0.128,1.315-0.128,1.477,1.15c0.188,1.511,0.401,3.018,0.557,4.533c0.176,1.722-0.999,3.112-2.734,3.135
		c-3.439,0.046-6.88,0.043-10.321,0.002c-1.805-0.021-2.968-1.456-2.754-3.251C10.075,21.005,10.299,19.18,10.529,17.271z"/>
	<path fill="#808080" d="M17.727,21.055c-0.721,0.158-0.751-0.266-0.785-0.833c-0.042-0.712,0.301-0.76,0.872-0.787
		c0.734-0.036,0.743,0.352,0.762,0.899C18.597,20.985,18.307,21.159,17.727,21.055z"/>
	<path fill="#808080" d="M20.812,20.34c0.158,0.781-0.362,0.708-0.879,0.743c-0.699,0.046-0.693-0.35-0.729-0.865
		c-0.049-0.718,0.318-0.753,0.884-0.783C20.83,19.398,20.892,19.783,20.812,20.34z"/>
	<path fill="#808080" d="M20.043,23.315c-0.664,0.143-0.844-0.166-0.843-0.804c0.002-0.608,0.191-0.797,0.808-0.81
		c0.654-0.01,0.851,0.197,0.834,0.844C20.83,23.136,20.698,23.454,20.043,23.315z"/>
	<path fill="#808080" d="M17.791,17.187c0.648-0.126,0.768,0.205,0.787,0.784c0.023,0.678-0.244,0.804-0.859,0.822
		c-0.723,0.021-0.752-0.325-0.777-0.89C16.911,17.216,17.237,17.105,17.791,17.187z"/>
	<path fill="#808080" d="M16.976,22.521c-0.165-0.708,0.225-0.8,0.821-0.815c0.642-0.019,0.762,0.252,0.782,0.827
		c0.024,0.682-0.249,0.815-0.865,0.82C17.076,23.358,16.856,23.13,16.976,22.521z"/>
	<path fill="#808080" d="M15.451,18.755c-0.653,0.132-0.793-0.179-0.81-0.772c-0.018-0.672,0.25-0.817,0.864-0.828
		c0.635-0.009,0.781,0.228,0.789,0.814C16.3,18.616,16.103,18.902,15.451,18.755z"/>
	<path fill="#808080" d="M20.655,17.397c0.266,0.607,0.177,0.979-0.101,1.295c-0.168,0.194-0.974,0.135-1.188-0.096
		c-0.22-0.237-0.244-1.051-0.043-1.199C19.668,17.142,20.493,17.031,20.655,17.397z"/>
	<path fill="#808080" d="M15.487,19.472c0.718-0.17,0.792,0.237,0.803,0.816c0.01,0.595-0.168,0.808-0.794,0.803
		c-0.625-0.006-0.866-0.17-0.855-0.825C14.652,19.636,14.818,19.326,15.487,19.472z"/>
	<path fill="#808080" d="M16.26,22.564c0.138,0.681-0.232,0.758-0.794,0.788c-0.689,0.033-0.813-0.259-0.823-0.866
		c-0.009-0.646,0.256-0.771,0.834-0.784C16.149,21.687,16.378,21.942,16.26,22.564z"/>
</g>
<path fill-rule="evenodd" clip-rule="evenodd" fill="#808080" d="M-25.951,25.566c0-2.888,0-5.752,0-8.656c0.824,0,1.608,0,2.398,0
	c0.086-0.971,0.167-1.903,0.251-2.865c-0.899,0-1.762,0-2.642,0c0-0.708-0.016-1.387,0.006-2.064
	c0.01-0.317,0.208-0.523,0.542-0.539c0.378-0.019,0.757-0.021,1.136-0.026c0.31-0.004,0.622,0,0.948,0c0-1.006,0-1.964,0-2.995
	c-1.318,0.057-2.622-0.134-3.901,0.183c-1.342,0.331-2.114,1.285-2.177,2.686c-0.035,0.8-0.014,1.601-0.017,2.403
	c-0.001,0.114,0,0.228,0,0.373c-0.632,0-1.212,0-1.789,0c0,0.978,0,1.926,0,2.91c0.6,0,1.18,0,1.798,0c0,2.888,0,5.742,0,8.592
	C-28.233,25.566-27.112,25.566-25.951,25.566z"/>
<g>
	<path fill="#808080" d="M-26.72,32.642c-9,0-16.321-7.323-16.321-16.322S-35.719,0-26.72,0c8.999,0,16.32,7.321,16.32,16.32
		S-17.721,32.642-26.72,32.642z M-26.72,3.144c-7.264,0-13.174,5.91-13.174,13.176c0,7.264,5.91,13.174,13.174,13.174
		c7.265,0,13.175-5.91,13.175-13.174C-13.545,9.054-19.455,3.144-26.72,3.144z"/>
</g>
<g>
	<path fill="#808080" d="M17.679,33.342c-8.999,0-16.32-7.32-16.32-16.318c0-9.001,7.321-16.322,16.32-16.322
		C26.678,0.702,34,8.022,34,17.023C34,26.021,26.678,33.342,17.679,33.342z M17.679,3.848c-7.263,0-13.175,5.91-13.175,13.176
		c0,7.262,5.912,13.173,13.175,13.173c7.265,0,13.175-5.911,13.175-13.173C30.854,9.758,24.943,3.848,17.679,3.848z"/>
</g>
</svg>
