<?xml version="1.0" encoding="utf-8"?>
<!-- Generator: Adobe Illustrator 16.0.4, SVG Export Plug-In . SVG Version: 6.00 Build 0)  -->
<!DOCTYPE svg PUBLIC "-//W3C//DTD SVG 1.1//EN" "http://www.w3.org/Graphics/SVG/1.1/DTD/svg11.dtd">
<svg version="1.1" id="Layer_1" xmlns="http://www.w3.org/2000/svg" xmlns:xlink="http://www.w3.org/1999/xlink" x="0px" y="0px"
	 width="35px" height="35px" viewBox="0 0 35 35" enable-background="new 0 0 35 35" xml:space="preserve">
<g>
	<path fill="#252160" d="M21.811,14.161c-2.154,0-4.281,0-6.529,0c0,0.315,0.014,0.63-0.002,0.942
		c-0.057,1.14-0.76,1.837-1.885,1.881c-0.943,0.039-1.887,0.092-2.83,0.112c-1.127,0.021-1.871-0.65-1.998-1.773
		c-0.297-2.583,0.537-4.168,2.885-5.317c2.936-1.44,6.072-1.583,9.254-1.328c1.695,0.136,3.354,0.486,4.871,1.28
		c0.695,0.364,1.369,0.822,1.938,1.362c1.363,1.291,1.227,2.963,0.908,4.595c-0.15,0.767-0.893,1.196-1.703,1.182
		c-1.066-0.018-2.137-0.059-3.203-0.127c-0.842-0.053-1.482-0.698-1.617-1.592C21.84,14.989,21.84,14.594,21.811,14.161z
		 M25.293,15.563c0-0.017,0.004-0.033,0.004-0.049c0.424,0.02,0.85,0.081,1.264,0.038c0.18-0.019,0.445-0.234,0.48-0.401
		c0.348-1.628-0.109-2.67-1.555-3.526c-0.51-0.301-1.059-0.561-1.619-0.748c-2.822-0.943-5.719-1.016-8.615-0.489
		c-1.156,0.211-2.314,0.61-3.373,1.125c-1.588,0.777-2.045,1.812-1.777,3.546c0.029,0.192,0.344,0.464,0.547,0.486
		c0.516,0.05,1.043-0.024,1.562-0.041c1.498-0.044,1.498-0.042,1.557-1.566c0.002-0.102,0.002-0.201,0.016-0.298
		c0.094-0.655,0.43-1.034,1.133-1.032c2.436,0.004,4.871-0.007,7.309,0.007c0.748,0.004,1.094,0.349,1.16,1.075
		c0.055,0.558-0.102,1.346,0.201,1.616C23.951,15.626,24.705,15.499,25.293,15.563z"/>
	<path fill="#252160" d="M11.26,17.87c0.535,0,0.998,0,1.527,0c-0.203,1.688-0.4,3.331-0.6,4.976
		c-0.029,0.246-0.068,0.492-0.09,0.738c-0.1,1.107,0.391,1.686,1.523,1.691c3.307,0.021,6.613,0.022,9.918,0
		c1.154-0.008,1.643-0.645,1.498-1.788c-0.234-1.847-0.457-3.693-0.686-5.522c0.082-0.051,0.121-0.097,0.162-0.1
		c1.33-0.13,1.33-0.13,1.494,1.163c0.191,1.527,0.406,3.052,0.562,4.584c0.178,1.742-1.01,3.148-2.766,3.171
		c-3.479,0.047-6.959,0.044-10.439,0.002c-1.826-0.02-3.002-1.473-2.785-3.288C10.801,21.646,11.025,19.801,11.26,17.87z"/>
	<path fill="#252160" d="M18.539,21.696c-0.729,0.16-0.76-0.268-0.793-0.843c-0.043-0.719,0.305-0.768,0.881-0.795
		c0.742-0.037,0.752,0.354,0.77,0.909C19.42,21.626,19.125,21.802,18.539,21.696z"/>
	<path fill="#252160" d="M21.66,20.974c0.16,0.79-0.365,0.716-0.889,0.752c-0.707,0.046-0.701-0.354-0.736-0.876
		c-0.051-0.726,0.32-0.761,0.893-0.791C21.678,20.021,21.74,20.41,21.66,20.974z"/>
	<path fill="#252160" d="M20.883,23.983c-0.672,0.144-0.854-0.168-0.854-0.813c0.002-0.615,0.193-0.806,0.816-0.817
		c0.662-0.011,0.861,0.198,0.844,0.853C21.678,23.802,21.545,24.123,20.883,23.983z"/>
	<path fill="#252160" d="M18.604,17.785c0.656-0.128,0.777,0.206,0.797,0.792c0.023,0.686-0.246,0.813-0.869,0.831
		c-0.73,0.022-0.762-0.328-0.785-0.898C17.715,17.812,18.045,17.703,18.604,17.785z"/>
	<path fill="#252160" d="M17.781,23.18c-0.168-0.717,0.227-0.81,0.828-0.825c0.65-0.019,0.771,0.256,0.791,0.837
		c0.025,0.689-0.25,0.824-0.875,0.829C17.881,24.026,17.658,23.796,17.781,23.18z"/>
	<path fill="#252160" d="M16.236,19.37c-0.66,0.134-0.801-0.181-0.818-0.78c-0.018-0.68,0.252-0.828,0.873-0.838
		c0.643-0.01,0.791,0.229,0.799,0.823C17.098,19.23,16.896,19.52,16.236,19.37z"/>
	<path fill="#252160" d="M21.502,17.998c0.268,0.614,0.178,0.989-0.102,1.309c-0.17,0.197-0.984,0.137-1.201-0.096
		c-0.223-0.241-0.248-1.062-0.045-1.213C20.502,17.738,21.338,17.627,21.502,17.998z"/>
	<path fill="#252160" d="M16.273,20.096c0.727-0.173,0.801,0.239,0.812,0.825c0.012,0.602-0.17,0.817-0.803,0.812
		c-0.633-0.007-0.875-0.172-0.865-0.835C15.43,20.261,15.598,19.948,16.273,20.096z"/>
	<path fill="#252160" d="M17.057,23.224c0.139,0.688-0.236,0.767-0.805,0.797c-0.697,0.034-0.822-0.262-0.832-0.876
		c-0.01-0.652,0.26-0.779,0.844-0.792C16.943,22.336,17.176,22.595,17.057,23.224z"/>
</g>
<path fill-rule="evenodd" clip-rule="evenodd" fill="#252160" d="M-31.91,26.566c0-2.888,0-5.752,0-8.656c0.824,0,1.607,0,2.398,0
	c0.086-0.971,0.168-1.903,0.252-2.865c-0.9,0-1.762,0-2.643,0c0-0.708-0.016-1.387,0.006-2.064c0.01-0.317,0.209-0.523,0.543-0.539
	c0.379-0.019,0.758-0.021,1.137-0.026c0.309-0.004,0.621,0,0.947,0c0-1.006,0-1.964,0-2.995c-1.318,0.057-2.621-0.134-3.901,0.183
	c-1.342,0.331-2.114,1.285-2.177,2.686c-0.035,0.8-0.014,1.601-0.017,2.403c-0.002,0.114,0,0.228,0,0.373c-0.633,0-1.213,0-1.789,0
	c0,0.978,0,1.926,0,2.91c0.6,0,1.18,0,1.798,0c0,2.888,0,5.742,0,8.592C-34.193,26.566-33.071,26.566-31.91,26.566z"/>
<g>
	<path fill="#252160" d="M-32.679,33.642c-9,0-16.321-7.323-16.321-16.322S-41.679,1-32.679,1s16.32,7.321,16.32,16.32
		S-23.68,33.642-32.679,33.642z M-32.679,4.144c-7.264,0-13.174,5.91-13.174,13.176c0,7.264,5.91,13.174,13.174,13.174
		c7.265,0,13.175-5.91,13.175-13.174C-19.504,10.054-25.414,4.144-32.679,4.144z"/>
</g>
<g>
	<path fill="#252160" d="M18.49,34.125c-9.102,0-16.506-7.404-16.506-16.506C1.984,8.515,9.389,1.11,18.49,1.11
		C27.594,1.11,35,8.515,35,17.619C35,26.721,27.594,34.125,18.49,34.125z M18.49,4.292c-7.346,0-13.326,5.978-13.326,13.327
		c0,7.346,5.98,13.324,13.326,13.324c7.35,0,13.326-5.979,13.326-13.324C31.816,10.27,25.84,4.292,18.49,4.292z"/>
</g>
</svg>
