<?xml version="1.0" encoding="utf-8"?>
<!-- Generator: Adobe Illustrator 16.0.4, SVG Export Plug-In . SVG Version: 6.00 Build 0)  -->
<!DOCTYPE svg PUBLIC "-//W3C//DTD SVG 1.1//EN" "http://www.w3.org/Graphics/SVG/1.1/DTD/svg11.dtd">
<svg version="1.1" id="Layer_1" xmlns="http://www.w3.org/2000/svg" xmlns:xlink="http://www.w3.org/1999/xlink" x="0px" y="0px"
	 width="300px" height="299.567px" viewBox="0 0 300 299.567" enable-background="new 0 0 300 299.567" xml:space="preserve">
<circle fill-rule="evenodd" clip-rule="evenodd" fill="#FFFFFF" stroke="#898989" stroke-width="9.8645" stroke-miterlimit="10" cx="149.882" cy="149.135" r="139.52"/>
<g>
	<path fill-rule="evenodd" clip-rule="evenodd" fill="#898989" d="M148.779,192.666c-12.491-0.002-24.996,0.366-37.466-0.145
		c-7.149-0.291-9.978,1.641-10.076,9.29c-0.16,12.463-1.568,24.911-2.531,37.358c-0.316,4.04,0.244,8.829-6.396,8.113
		c-6.12-0.659-4.464-5.234-4.222-8.599c2.576-35.847,5.334-71.682,8.02-107.522c1.244-16.599,2.481-33.198,3.633-49.803
		c1.477-21.277,6.251-26.954,31.995-29.156c16.632-1.422,33.759-2.652,50.355,3.18c8.913,3.135,14.155,8.247,14.923,17.705
		c3.753,46.002,7.609,91.996,11.154,138.016c0.506,6.604-2.866,13.169,5.129,18.598c4.606,3.127,2.531,9.942-1.932,13.929
		c-4.522,4.042-9.843,4.272-14.444,0.286c-4.882-4.234-5.601-9.503-2.149-15.299c1.466-2.459,6.601-3.362,5.268-5.938
		c-4.593-8.877-0.849-18.868-4.558-27.611c-1.496-3.527-5.245-2.326-8.097-2.35C174.517,192.601,161.649,192.666,148.779,192.666z
		 M149.127,181.752c12.887,0,25.776-0.173,38.652,0.082c5.37,0.107,7.507-1.654,7.027-7.199c-1.812-21.127-3.42-42.274-5.028-63.416
		c-0.417-5.437-2.727-7.948-8.603-7.882c-21.978,0.25-43.958,0.174-65.938,0.055c-4.69-0.027-6.654,1.617-6.969,6.501
		c-1.359,21.162-2.896,42.313-4.726,63.438c-0.564,6.496,1.539,8.741,8.07,8.537C124.107,181.479,136.624,181.757,149.127,181.752z
		 M149.406,92.608c10.23,0,20.479-0.389,30.681,0.134c6.933,0.355,8.715-2.499,7.649-8.653c-0.707-4.102-0.911-8.31-1.88-12.341
		c-1.15-4.792-4.956-7.02-9.475-6.073c-17.526,3.668-34.894,3.558-52.447-0.021c-9.119-1.859-13.343,3.035-13.263,12.16
		c0.062,7.408-3.707,16.611,10.349,14.999C130.366,91.742,139.937,92.61,149.406,92.608z"/>
	<path fill-rule="evenodd" clip-rule="evenodd" fill="#FDFDFD" d="M149.127,181.754c-12.503,0.003-25.02-0.275-37.514,0.114
		c-6.531,0.204-8.635-2.041-8.07-8.537c1.83-21.124,3.366-42.276,4.726-63.438c0.315-4.884,2.278-6.528,6.969-6.501
		c21.98,0.12,43.961,0.196,65.938-0.055c5.876-0.066,8.186,2.445,8.603,7.882c1.608,21.142,3.217,42.289,5.028,63.416
		c0.479,5.545-1.657,7.306-7.027,7.199C174.903,181.579,162.014,181.752,149.127,181.754z"/>
	<path fill-rule="evenodd" clip-rule="evenodd" fill="#FDFDFD" d="M149.406,92.609c-9.469,0.001-19.04-0.867-28.385,0.204
		c-14.056,1.612-10.287-7.591-10.349-14.999c-0.08-9.125,4.144-14.019,13.263-12.16c17.554,3.579,34.921,3.689,52.447,0.021
		c4.519-0.946,8.324,1.281,9.475,6.073c0.969,4.031,1.173,8.24,1.88,12.341c1.065,6.154-0.717,9.008-7.649,8.653
		C169.885,92.219,159.637,92.608,149.406,92.609z"/>
</g>
<rect x="-662" y="-47" fill="#252160" width="571" height="284"/>
</svg>
