<?xml version="1.0" encoding="utf-8"?>
<!-- Generator: Adobe Illustrator 16.0.4, SVG Export Plug-In . SVG Version: 6.00 Build 0)  -->
<!DOCTYPE svg PUBLIC "-//W3C//DTD SVG 1.1//EN" "http://www.w3.org/Graphics/SVG/1.1/DTD/svg11.dtd">
<svg version="1.1" id="Layer_1" xmlns="http://www.w3.org/2000/svg" xmlns:xlink="http://www.w3.org/1999/xlink" x="0px" y="0px"
	 width="500px" height="500px" viewBox="0 0 500 500" enable-background="new 0 0 500 500" xml:space="preserve">
<circle fill="none" stroke="#4C567A" stroke-width="18" stroke-miterlimit="10" cx="250.226" cy="249.824" r="237.156"/>
<g>
	<path fill-rule="evenodd" clip-rule="evenodd" fill="#4C567A" stroke="#4C567A" stroke-width="4.248" stroke-miterlimit="10" d="
		M190.302,369.596c-21.571-1.428-44.163-8.522-64.416-22.468c-2.798-1.927-5.278-4.455-7.494-7.058
		c-6.013-7.057-5.781-14.465-0.374-21.942c6.448-8.917,12.597-18.065,18.521-27.341c1.494-2.339,2.159-5.516,2.319-8.357
		c1.825-32.474,7.809-63.938,25.138-91.992c20.508-33.205,50.42-53.379,88.877-60.449c15.202-2.794,30.509-3.893,45.715,0.359
		c23.217,6.492,40.949,20.609,55.036,39.721c12.969,17.594,21.275,37.405,27.285,58.262c0.765,2.658,1.879,4.469,4.486,5.905
		c10.844,5.971,12.181,18.036,2.507,26.916c-5.523,5.068-11.861,9.545-18.482,13.063c-19.537,10.382-39.419,20.114-59.111,30.202
		c-3.445,1.765-6.712,3.913-9.935,6.076c-24.298,16.304-48.688,32.473-72.781,49.075
		C217.086,366.81,205.599,369.506,190.302,369.596z M141.415,302.694c-5.905,8.107-11.245,15.417-16.559,22.745
		c-1.799,2.481-1.603,5.137,0.243,7.324c2.125,2.518,4.401,5.1,7.109,6.905c17.425,11.625,36.669,18.311,57.536,19.925
		c10.082,0.781,20.18-0.151,28.854-5.942c27.01-18.032,53.841-36.333,80.757-54.509c1.321-0.893,2.743-1.662,4.188-2.338
		c23.074-10.776,46.19-21.478,67.772-35.118c3.477-2.197,6.928-4.604,9.861-7.456c5.267-5.12,4.36-9.846-2.41-12.343
		c-3.741-1.38-5.271-3.701-6.257-7.328c-5.486-20.151-13.13-39.387-25.248-56.582c-12.142-17.223-27.428-30.432-47.761-37.203
		c-13.362-4.45-26.935-3.931-40.532-1.84c-34.76,5.345-63.329,21.688-82.735,51.081c-22.509,34.093-30.271,72.167-24.946,112.742
		c0.283,2.151,1.501,4.698,3.121,6.075c10.929,9.287,24.33,12.604,38.039,15.507c-0.556-4.952-1.277-9.478-1.53-14.027
		c-0.561-10.061,0.759-19.932,3.734-29.558c1.138-3.679,3.745-5.326,6.55-4.385c2.77,0.93,3.759,3.473,2.768,7.101
		c-0.303,1.106-0.62,2.209-0.883,3.324c-3.247,13.778-3.498,27.483,0.856,41.117c1.42,4.445-0.941,7.922-5.083,7.351
		c-14.742-2.034-29.167-5.385-42.169-12.931C149.293,318.038,141.377,313.771,141.415,302.694z"/>
	<path fill-rule="evenodd" clip-rule="evenodd" fill="#4C567A" stroke="#4C567A" stroke-width="4.248" stroke-miterlimit="10" d="
		M165.438,277.633c0.146-24.357,4.217-47.845,15.836-69.456c3.98-7.402,9.396-14.068,14.481-20.825
		c2.104-2.795,5.062-2.736,7.207-0.725c2.088,1.958,2.062,4.725-0.217,7.315c-14.353,16.305-21.48,35.815-25.147,56.828
		c-2.703,15.49-2.568,31.064-1.285,46.688c0.147,1.786-1.056,4.221-2.443,5.41c-0.944,0.811-3.799,0.595-4.896-0.286
		c-1.294-1.041-2.104-3.249-2.269-5.03C166.094,290.929,165.832,284.275,165.438,277.633z"/>
	<path fill-rule="evenodd" clip-rule="evenodd" fill="#4C567A" stroke="#4C567A" stroke-width="4.248" stroke-miterlimit="10" d="
		M242.627,320.729c-1.312-1.203-3.425-2.246-3.784-3.718c-0.399-1.629,0.218-4.356,1.427-5.368
		c3.408-2.847,7.292-5.146,11.091-7.496c3.408-2.109,6.912-4.068,10.443-5.967c3.26-1.756,5.979-1.17,7.47,1.407
		c1.505,2.599,0.495,5.146-2.694,7.077c-6.662,4.037-13.287,8.135-19.951,12.168C245.577,319.471,244.399,319.899,242.627,320.729z"
		/>
	<path fill-rule="evenodd" clip-rule="evenodd" fill="#4C567A" stroke="#4C567A" stroke-width="4.248" stroke-miterlimit="10" d="
		M326.624,271.251c-1.211-0.966-3.146-1.786-3.723-3.172c-0.582-1.406-0.133-3.484,0.458-5.044c0.386-1.018,1.754-1.758,2.813-2.407
		c6.53-4.01,13.048-8.041,19.673-11.888c3.12-1.812,6.076-0.987,7.407,1.654c1.245,2.471,0.193,5.129-2.673,6.873
		c-6.839,4.161-13.658,8.355-20.509,12.497C329.216,270.283,328.222,270.572,326.624,271.251z"/>
</g>
</svg>
