<?xml version="1.0" encoding="utf-8"?>
<!-- Generator: Adobe Illustrator 16.0.4, SVG Export Plug-In . SVG Version: 6.00 Build 0)  -->
<!DOCTYPE svg PUBLIC "-//W3C//DTD SVG 1.1//EN" "http://www.w3.org/Graphics/SVG/1.1/DTD/svg11.dtd">
<svg version="1.1" id="Layer_1" xmlns="http://www.w3.org/2000/svg" xmlns:xlink="http://www.w3.org/1999/xlink" x="0px" y="0px"
	 width="440px" height="204px" viewBox="0 0 440 204" enable-background="new 0 0 440 204" xml:space="preserve">
<g>
	<g>
		<g>
			<path fill="#282560" d="M222.256,96.965c-1.988-2.738-4.287-6.128-4.93-6.871c-0.251-0.298-0.551-0.356-0.898-0.356l-4.222-0.097
				c-0.248,0-0.289,0.097-0.289,0.406v0.688c0,4.638-0.111,8.576,0.14,10.663c0.076,0.759,0.149,1.414,0.458,1.901
				c4.957-0.22,9.814-0.373,14.621-0.458C225.693,101.52,224.176,99.604,222.256,96.965"/>
			<path fill="#282560" d="M212.251,86.853c1.048,0.354,2.486,0.5,3.735,0.5c1.99,0,2.614-0.204,3.506-0.847
				c1.497-1.099,2.925-3.381,2.925-7.476c0-7.071-4.685-9.117-7.628-9.117c-1.246,0-2.039,0.05-2.535,0.208
				c-0.35,0.098-0.339,0.296-0.339,0.688v15.145C211.916,86.506,211.902,86.701,212.251,86.853"/>
			<path fill="#282560" d="M307.056,74.896c-4.579-4.382-10.263-4.982-14.146-4.982c-1.001,0-2.84,0.155-3.237,0.355
				c-0.45,0.198,0.031,0.444,0.031,0.993c-0.054,1.694,0.575,6.029,0.575,9.96v6.28c0,5.28-0.575,9.116-0.532,10.06
				c0.055,1.245-0.156,3.243,0.241,3.784c0.647,0.948,2.433,2,6.368,2c4.069,0,6.97-0.523,9.53-2.107
				c-0.268-0.136-0.612-0.474-0.878-0.474h1.711c0.314,0,0.627-0.608,0.932-0.87c3.191-2.74,4.188-7.347,4.188-12.475
				C311.839,81.096,309.2,76.941,307.056,74.896"/>
			<path fill="#282560" d="M266.923,101.399c0.247-2.087,0.604-6.027,0.604-10.615v-4.38c0-0.197-0.865-0.807-1.009-0.807h-19.04
				c-0.146,0-1.437,0.562-1.437,0.807v4.38c0,4.588,0.569,8.528,0.821,10.661c0.055,0.519,0.418,0.998,0.567,1.402
				c6.301,0.118,12.729,0.338,18.609,0.636C266.341,102.987,266.802,102.256,266.923,101.399"/>
			<path fill="#BE202E" d="M333.647,113.857c-3.515-0.593-7.863-1.217-12.966-1.825c-0.464,0.328-0.917,0.499-1.384,0.499
				c-0.653,0-1.364-0.303-2.129-0.903c-22.909-2.525-58.863-4.971-101.688-2.911c-45.138,2.174-76.393,7.214-101.467,11.006h222.418
				c-0.37,0-0.775-1.605-1.226-2.924C334.726,115.427,334.202,114.728,333.647,113.857"/>
			<path fill="#282560" d="M100.917,119.723c22.385-5.056,58.548-13.774,103.941-16.429c0.408-0.486,1.095-1.103,1.229-2.094
				c0.254-2.088,0.775-5.828,0.775-10.416v-8.76c0-7.573-0.521-8.968-0.623-10.56c-0.098-1.7-0.761-2.495-2.403-2.849
				c-0.397-0.1-1.381-0.147-2.074-0.147c-0.547,0-0.912-0.096-0.912-0.446c0-0.347,0.321-0.446,1.066-0.446
				c2.64,0,5.764,0.147,6.805,0.147c1.696,0,5.473-0.147,7.019-0.147c3.135,0,6.467,0.3,9.16,2.14
				c1.393,0.95,3.383,3.489,3.383,6.822c0,3.691-1.547,7.08-6.574,11.161c4.434,5.579,7.867,10.008,10.808,13.105
				c0.826,0.853,1.583,1.482,2.266,1.952c1.9-0.008,3.794-0.008,5.666,0.001c0.115-0.395-0.424-0.855-0.352-1.358
				c0.244-2.087-0.374-6.027-0.374-10.615v-8.76c0-7.573,0.617-8.968,0.521-10.56c-0.099-1.7-0.192-2.495-1.834-2.849
				c-0.396-0.1-1.086-0.147-1.788-0.147c-0.549,0-0.774-0.096-0.774-0.446c0-0.347,0.391-0.446,1.085-0.446
				c2.692,0,5.854,0.147,7.201,0.147c1.193,0,4.341-0.147,6.281-0.147c0.695,0,1.048,0.1,1.048,0.446
				c0,0.351-0.296,0.446-0.895,0.446c-0.396,0-0.844,0.048-1.44,0.147c-1.345,0.259-2.314,1.1-2.42,2.849
				c-0.096,1.592-0.665,2.986-0.665,10.56v1.04c0,0.261,1.291,0.005,1.437,0.005h19.038c0.146,0,1.011,0.256,1.011-0.005v-1.04
				c0-7.573-0.357-8.968-0.459-10.56c-0.094-1.7-0.673-2.495-2.32-2.849c-0.395-0.1-1.334-0.147-2.032-0.147
				c-0.544,0-0.886-0.096-0.886-0.446c0-0.347,0.32-0.446,1.018-0.446c2.69,0,5.819,0.147,7.166,0.147
				c1.191,0,4.321-0.147,6.269-0.147c0.698,0,1.046,0.1,1.046,0.446c0,0.351-0.301,0.446-0.9,0.446c-0.396,0-0.85,0.048-1.447,0.147
				c-1.343,0.259-1.971,1.1-2.071,2.849c-0.098,1.592-0.325,2.986-0.325,10.56v8.76c0,4.588,0.225,8.528,0.479,10.661
				c0.132,1.194,0.49,2.166,1.49,2.548c1.606,0.105,3.248,0.22,4.812,0.335c0.695-0.009,1.283-0.098,1.71-0.19
				c0.996-0.199,0.576-1.295,0.776-2.738c0.246-2.087-0.419-6.027-0.419-10.615v-8.76c0-7.573,0.683-8.968,0.581-10.56
				c-0.094-1.7-0.151-2.495-1.799-2.849c-0.396-0.1-1.077-0.147-1.767-0.147c-0.554,0-0.768-0.096-0.768-0.446
				c0-0.347,0.389-0.446,1.137-0.446c2.641,0,5.81,0.147,7.195,0.147c1.543,0,4.696-0.147,7.68-0.147c6.23,0,14.557,0,19.983,5.678
				c2.493,2.591,4.835,6.724,4.835,12.646c0,6.28-2.635,11.065-5.427,13.902c-2.293,2.346-7.468,5.879-16.685,5.879
				c-0.854,0-1.765-0.038-2.687-0.087c7.463,0.765,14.302,1.627,20.405,2.525c-0.246-0.353-0.497-0.722-0.751-1.118
				c-0.67-1.084-1.575-2.734-2.701-4.896c1.738,2.196,3.27,4.256,4.584,6.185c2.809,0.421,5.456,0.85,7.925,1.277
				c-0.073-0.05-0.16-0.093-0.232-0.146c0.539-1.342,0.814-2.421,0.814-3.231c0-1.261-1.492-2.749-4.458-4.454
				c-1.256-0.721-1.882-1.658-1.882-2.833c0.268-0.441,0.445-0.808,0.538-1.077c0.711-1.886,1.075-3.458,1.075-4.714
				c1.98,1.071,3.206,1.709,3.696,1.88c0.493,0.182,0.414,0.314,1.677,0.415v-5.397c-2.527-1.084-2.819-1.892-3.361-2.432
				c-0.808-0.896-1.202-2.197-1.202-3.905c0-0.544,0.269-0.741,0.808-0.609c0.544,0.136,1.028,0.113,1.483-0.068
				c-0.629-0.271-1.055-0.583-1.276-0.948c-0.234-0.354-0.341-1.072-0.341-2.151c0-2.519,0.514-4.29,1.552-5.33
				c1.03-1.029,1.552-1.591,1.552-1.682c0-0.271-2.253-2.246-6.745-5.933c-4.498-3.679-6.874-5.571-7.145-5.661
				c-0.721,0.09-1.44,0.134-2.157,0.134c-0.901,0-2.023-0.208-3.371-0.613c-1.347-0.404-2.608-1.005-3.77-1.813
				c-1.534-1.084-2.635-2.542-3.308-4.385c-0.675-1.845-1.556-2.762-2.635-2.762c-0.987,0-2.134,0.263-3.441,0.808
				c-1.301,0.536-2.081,0.853-2.353,0.943c-0.271-0.445-0.588-0.992-0.944-1.618c-0.355-0.628-0.539-1.839-0.539-3.637
				c0-2.429,1.255-4.813,3.781-7.146c2.509-2.341,3.764-4.549,3.764-6.609c0-3.778-2.56-6.649-7.677-8.632
				c-5.131-1.976-7.692-3.688-7.692-5.121c0-0.182,0.14-0.624,0.406-1.351c0.273-0.719,0.406-1.296,0.406-1.753
				c0-0.99-0.561-1.927-1.687-2.828c-1.124-0.899-3.124-1.708-5.999-2.425c-0.54,1.251-1.034,2.466-1.481,3.637
				c-0.722,1.798-1.532,3.144-2.428,4.044c-3.151-2.428-6.255-4.851-9.306-7.275c-3.056-2.438-5.394-4.135-7.014-5.126
				c-0.715,1.973-1.164,4.241-1.345,6.809c-0.182,2.554-0.541,4.493-1.077,5.797c-0.544,1.305-2.968,3.797-7.286,7.485
				c-2.338,1.968-4.544,4.579-6.602,7.812c-0.815-0.264-1.462-0.537-1.961-0.81c-0.496-0.263-1.368-0.759-2.631-1.475
				c-1.44,3.595-2.833,7.145-4.181,10.649c-1.98,4.318-3.996,6.47-6.065,6.47c-1.983,0-3.913-1.029-5.797-3.105
				c-1.886-2.059-3.013-3.101-3.377-3.101c-0.265,0.276-0.538,0.48-0.807,0.614c-0.27,0.131-0.533,0.157-0.81,0.065
				c0,3.778-2.244,9.439-6.742,16.987C199.92,68.162,197,72.348,194.842,74.5c-1.531,1.536-2.856,4.562-3.98,9.098
				c-1.125,4.541-2.629,7.222-4.514,8.03c-0.362,0.183-1.058,0.044-2.096-0.405c-1.027-0.453-1.863-0.585-2.492-0.403
				c-0.808,0.181-1.774,0.874-2.9,2.086c-1.121,1.214-2.133,1.827-3.029,1.827c-1.262,0-2.117-0.144-2.566-0.407
				c-0.268,0-1.073,0.134-2.427,0.407c0,1.878-1.345,3.324-4.042,4.313c-1.981,0.718-4,1.072-6.071,1.072
				c-0.719,0-1.749-0.534-3.102-1.615c-1.349-1.074-2.247-1.619-2.696-1.619c-0.9,0-1.798,0.499-2.691,1.487
				c-1.807,2.071-3.242,3.102-4.321,3.102c-3.146,0-5.928-1.354-8.357-4.044c-2.426-2.696-3.641-5.934-3.641-9.711
				c-5.845,4.044-10.296,7.145-13.351,9.3c-9.081,6.476-14.423,10.209-16.045,12.009c-4.587,5.287-9.656,9.432-15.185,10.696
				H100.917z"/>
			<path fill="#282560" d="M430.548,151.243h1.885c0.41,0,0.662-0.045,0.765-0.137c0.14-0.118,0.208-0.303,0.208-0.547v-0.248h0.174
				v2.774h-0.174v-0.243c0-0.277-0.089-0.469-0.266-0.589c-0.102-0.062-0.337-0.095-0.707-0.095h-4.181
				c-0.406,0-0.661,0.044-0.758,0.129c-0.144,0.125-0.211,0.312-0.211,0.555v0.243h-0.179v-2.372c0-0.581,0.059-1.036,0.179-1.372
				c0.117-0.335,0.324-0.616,0.605-0.847c0.283-0.228,0.619-0.344,1.008-0.344c0.527,0,0.959,0.176,1.288,0.523
				c0.336,0.348,0.495,0.843,0.495,1.479c0,0.155-0.01,0.324-0.029,0.505C430.628,150.841,430.592,151.036,430.548,151.243
				 M430.276,151.243c0.034-0.17,0.055-0.32,0.074-0.449c0.014-0.134,0.021-0.243,0.021-0.335c0-0.33-0.13-0.615-0.386-0.858
				c-0.256-0.239-0.587-0.359-0.994-0.359c-0.281,0-0.539,0.058-0.779,0.173c-0.242,0.114-0.424,0.275-0.545,0.485
				c-0.117,0.21-0.174,0.45-0.174,0.718c0,0.16,0.03,0.371,0.09,0.626H430.276z"/>
			<path fill="#282560" d="M431.793,142.201l0.03-0.156l1.756,0.554v5.013h-0.174v-0.243c0-0.271-0.089-0.471-0.266-0.589
				c-0.104-0.064-0.34-0.099-0.709-0.099h-4.179c-0.406,0-0.656,0.046-0.758,0.134c-0.144,0.123-0.211,0.311-0.211,0.554v0.243
				h-0.179v-2.931h0.179c-0.005,0.339,0.027,0.584,0.094,0.724c0.066,0.138,0.151,0.231,0.254,0.282
				c0.102,0.051,0.347,0.077,0.729,0.077h4.07c0.265,0,0.446-0.026,0.544-0.077c0.069-0.037,0.117-0.096,0.148-0.176
				c0.031-0.078,0.048-0.325,0.048-0.748v-0.469c0-0.496-0.039-0.849-0.108-1.045c-0.075-0.202-0.202-0.386-0.39-0.553
				C432.484,142.535,432.189,142.367,431.793,142.201"/>
			<path fill="#282560" d="M426.955,135.945l2.201-0.147v0.147c-0.656,0.195-1.128,0.476-1.42,0.843
				c-0.29,0.366-0.438,0.809-0.438,1.319c0,0.431,0.109,0.818,0.332,1.165c0.215,0.348,0.561,0.621,1.04,0.822
				c0.479,0.195,1.071,0.3,1.782,0.3c0.583,0,1.096-0.097,1.524-0.288c0.428-0.185,0.758-0.467,0.988-0.845
				c0.229-0.378,0.341-0.811,0.341-1.29c0-0.419-0.089-0.795-0.263-1.115c-0.184-0.321-0.541-0.674-1.075-1.059l0.096-0.149
				c0.574,0.324,0.998,0.701,1.262,1.138c0.27,0.43,0.403,0.945,0.403,1.543c0,1.072-0.396,1.903-1.192,2.492
				c-0.592,0.439-1.29,0.657-2.093,0.657c-0.644,0-1.241-0.142-1.781-0.432c-0.541-0.289-0.964-0.689-1.263-1.197
				c-0.293-0.508-0.445-1.066-0.445-1.666c0-0.466,0.115-0.929,0.344-1.383c0.073-0.134,0.105-0.231,0.105-0.286
				c0-0.087-0.029-0.165-0.091-0.227c-0.083-0.082-0.202-0.142-0.358-0.179V135.945z"/>
			<path fill="#929496" d="M55.658,186.357l1.414-14.241c0.068-0.72,0.102-1.209,0.102-1.462c0-0.376-0.143-0.694-0.424-0.944
				c-0.28-0.253-0.723-0.38-1.331-0.38h-0.455l0.128-0.465h6.749l-0.138,0.465c-0.733,0.007-1.235,0.084-1.509,0.225
				c-0.271,0.144-0.487,0.39-0.651,0.735c-0.081,0.186-0.171,0.711-0.264,1.575l-1.01,10.202l6.673-9.104
				c0.727-0.985,1.181-1.67,1.361-2.057c0.129-0.261,0.19-0.486,0.19-0.681c0-0.228-0.096-0.426-0.289-0.593
				c-0.196-0.165-0.552-0.271-1.083-0.304l0.149-0.465h5.149l-0.129,0.465c-0.408,0.033-0.738,0.112-0.982,0.239
				c-0.462,0.22-0.922,0.554-1.38,0.999c-0.459,0.445-1.186,1.346-2.176,2.696l-9.641,13.093H55.658z"/>
			<path fill="#929496" d="M73.224,174.554l-2.499,8.84c-0.167,0.596-0.252,0.956-0.252,1.075c0,0.134,0.04,0.243,0.12,0.326
				c0.08,0.086,0.177,0.128,0.283,0.128c0.128,0,0.278-0.069,0.455-0.205c0.48-0.378,0.966-0.912,1.453-1.613l0.441,0.289
				c-0.569,0.876-1.246,1.608-2.018,2.211c-0.574,0.442-1.12,0.667-1.643,0.667c-0.342,0-0.623-0.104-0.845-0.312
				c-0.215-0.203-0.326-0.464-0.326-0.773c0-0.312,0.104-0.828,0.315-1.554l1.641-5.648c0.266-0.928,0.404-1.508,0.404-1.741
				c0-0.187-0.065-0.338-0.196-0.456c-0.131-0.116-0.311-0.176-0.538-0.176c-0.184,0-0.568,0.047-1.147,0.142v-0.492L73.224,174.554
				z M73.06,169.545c0.354,0,0.65,0.123,0.894,0.368c0.245,0.241,0.37,0.54,0.37,0.893c0,0.347-0.125,0.643-0.376,0.888
				c-0.248,0.248-0.545,0.374-0.888,0.374c-0.345,0-0.641-0.126-0.889-0.374c-0.251-0.245-0.375-0.541-0.375-0.888
				c0-0.353,0.124-0.651,0.368-0.893C72.408,169.668,72.705,169.545,73.06,169.545"/>
			<path fill="#929496" d="M75.997,175.257l4.351-0.703l-1.813,6.129c1.469-2.514,2.808-4.272,4.01-5.272
				c0.681-0.571,1.236-0.856,1.666-0.856c0.276,0,0.496,0.079,0.655,0.243c0.162,0.165,0.242,0.402,0.242,0.715
				c0,0.555-0.147,1.086-0.433,1.59c-0.198,0.377-0.488,0.564-0.869,0.564c-0.193,0-0.358-0.062-0.5-0.188
				c-0.134-0.125-0.225-0.318-0.255-0.579c-0.018-0.16-0.055-0.265-0.113-0.317c-0.069-0.068-0.147-0.101-0.241-0.101
				c-0.144,0-0.275,0.032-0.402,0.101c-0.217,0.116-0.553,0.444-0.999,0.983c-0.696,0.826-1.452,1.895-2.27,3.207
				c-0.352,0.551-0.656,1.18-0.909,1.88c-0.351,0.958-0.552,1.53-0.606,1.724l-0.401,1.592h-1.93l2.331-7.835
				c0.273-0.904,0.409-1.555,0.409-1.942c0-0.148-0.067-0.277-0.194-0.376c-0.166-0.137-0.389-0.204-0.667-0.204
				c-0.177,0-0.501,0.04-0.973,0.114L75.997,175.257z"/>
			<path fill="#929496" d="M98.37,175.335l-0.369,1.311h-2.104c0.16,0.456,0.239,0.881,0.239,1.274c0,1.111-0.471,2.101-1.412,2.965
				c-0.952,0.867-2.255,1.346-3.914,1.437c-0.89,0.271-1.558,0.594-2.004,0.961c-0.169,0.135-0.25,0.272-0.25,0.415
				c0,0.17,0.076,0.322,0.225,0.461c0.151,0.141,0.535,0.279,1.15,0.423l2.447,0.567c1.353,0.319,2.25,0.699,2.687,1.138
				c0.425,0.442,0.639,0.956,0.639,1.538c0,0.686-0.252,1.317-0.76,1.891c-0.51,0.57-1.253,1.021-2.233,1.343
				c-0.98,0.324-2.063,0.484-3.25,0.484c-1.04,0-1.992-0.124-2.85-0.37c-0.857-0.248-1.474-0.583-1.843-1.004
				c-0.368-0.42-0.552-0.853-0.552-1.3c0-0.36,0.117-0.737,0.36-1.131c0.238-0.39,0.538-0.708,0.899-0.962
				c0.227-0.161,0.872-0.538,1.93-1.136c-0.39-0.304-0.582-0.638-0.582-0.996c0-0.339,0.171-0.691,0.511-1.073
				c0.34-0.378,1.062-0.793,2.164-1.249c-0.927-0.176-1.658-0.562-2.2-1.159c-0.543-0.598-0.815-1.263-0.815-1.992
				c0-1.195,0.525-2.262,1.574-3.205c1.044-0.94,2.439-1.411,4.178-1.411c0.63,0,1.148,0.062,1.554,0.188
				c0.403,0.127,0.795,0.322,1.174,0.594H98.37z M87.952,185.968c-0.682,0.312-1.2,0.714-1.544,1.197
				c-0.354,0.488-0.526,0.97-0.526,1.441c0,0.553,0.253,1.013,0.759,1.372c0.72,0.524,1.783,0.783,3.179,0.783
				c1.2,0,2.228-0.205,3.083-0.612c0.852-0.408,1.278-0.934,1.278-1.582c0-0.329-0.156-0.64-0.472-0.933
				c-0.315-0.295-0.925-0.537-1.833-0.719C91.375,186.815,90.07,186.498,87.952,185.968 M93.993,177.315
				c0-0.67-0.187-1.203-0.562-1.591c-0.374-0.39-0.862-0.58-1.471-0.58c-0.948,0-1.731,0.477-2.351,1.434
				c-0.621,0.953-0.926,1.949-0.926,2.981c0,0.647,0.196,1.175,0.591,1.589c0.396,0.411,0.876,0.619,1.439,0.619
				c0.445,0,0.877-0.122,1.292-0.367c0.416-0.242,0.767-0.58,1.053-1.007c0.289-0.428,0.513-0.977,0.682-1.642
				C93.907,178.088,93.993,177.607,93.993,177.315"/>
			<path fill="#929496" d="M104.438,174.554l-2.5,8.84c-0.167,0.596-0.251,0.956-0.251,1.075c0,0.134,0.04,0.243,0.119,0.326
				c0.079,0.086,0.177,0.128,0.284,0.128c0.128,0,0.28-0.069,0.455-0.205c0.479-0.378,0.964-0.912,1.454-1.613l0.438,0.289
				c-0.57,0.876-1.245,1.608-2.018,2.211c-0.574,0.442-1.119,0.667-1.643,0.667c-0.343,0-0.625-0.104-0.845-0.312
				c-0.216-0.203-0.326-0.464-0.326-0.773c0-0.312,0.104-0.828,0.313-1.554l1.642-5.648c0.267-0.928,0.403-1.508,0.403-1.741
				c0-0.187-0.064-0.338-0.194-0.456c-0.133-0.116-0.311-0.176-0.537-0.176c-0.184,0-0.567,0.047-1.147,0.142v-0.492
				L104.438,174.554z M104.272,169.545c0.356,0,0.651,0.123,0.896,0.368c0.243,0.241,0.369,0.54,0.369,0.893
				c0,0.347-0.125,0.643-0.375,0.888c-0.247,0.248-0.546,0.374-0.89,0.374c-0.342,0-0.64-0.126-0.889-0.374
				c-0.249-0.245-0.371-0.541-0.371-0.888c0-0.353,0.122-0.651,0.367-0.893C103.623,169.668,103.921,169.545,104.272,169.545"/>
			<path fill="#929496" d="M111.579,174.554l-1.676,5.738c1.572-2.345,2.779-3.89,3.612-4.629c0.837-0.741,1.641-1.109,2.417-1.109
				c0.421,0,0.766,0.135,1.041,0.413c0.273,0.279,0.41,0.639,0.41,1.085c0,0.506-0.122,1.179-0.366,2.019l-1.539,5.313
				c-0.176,0.611-0.264,0.986-0.264,1.122c0,0.115,0.033,0.215,0.1,0.294c0.066,0.082,0.139,0.123,0.216,0.123
				c0.099,0,0.222-0.057,0.366-0.165c0.445-0.356,0.932-0.892,1.462-1.619l0.389,0.245c-0.782,1.118-1.523,1.917-2.217,2.396
				c-0.489,0.327-0.926,0.492-1.316,0.492c-0.309,0-0.554-0.094-0.744-0.284c-0.181-0.19-0.274-0.443-0.274-0.765
				c0-0.403,0.143-1.097,0.429-2.084l1.464-5.068c0.182-0.63,0.277-1.12,0.277-1.474c0-0.17-0.054-0.306-0.166-0.412
				c-0.111-0.103-0.242-0.158-0.403-0.158c-0.236,0-0.517,0.104-0.843,0.303c-0.625,0.379-1.271,1.005-1.945,1.875
				c-0.672,0.869-1.382,1.983-2.13,3.335c-0.396,0.719-0.722,1.498-0.984,2.348l-0.63,2.081h-1.893l2.295-7.897
				c0.266-0.95,0.404-1.521,0.404-1.714c0-0.187-0.075-0.347-0.222-0.485c-0.148-0.139-0.33-0.208-0.549-0.208
				c-0.099,0-0.273,0.016-0.531,0.051l-0.478,0.076l-0.075-0.456L111.579,174.554z"/>
			<path fill="#929496" d="M124.894,174.554l-2.498,8.84c-0.166,0.596-0.249,0.956-0.249,1.075c0,0.134,0.039,0.243,0.118,0.326
				c0.08,0.086,0.176,0.128,0.283,0.128c0.125,0,0.278-0.069,0.454-0.205c0.481-0.378,0.964-0.912,1.453-1.613l0.439,0.289
				c-0.57,0.876-1.243,1.608-2.017,2.211c-0.572,0.442-1.12,0.667-1.639,0.667c-0.348,0-0.625-0.104-0.846-0.312
				c-0.215-0.203-0.326-0.464-0.326-0.773c0-0.312,0.105-0.828,0.315-1.554l1.642-5.648c0.265-0.928,0.402-1.508,0.402-1.741
				c0-0.187-0.068-0.338-0.199-0.456c-0.128-0.116-0.308-0.176-0.534-0.176c-0.183,0-0.567,0.047-1.147,0.142v-0.492
				L124.894,174.554z M124.729,169.545c0.355,0,0.653,0.123,0.896,0.368c0.245,0.241,0.368,0.54,0.368,0.893
				c0,0.347-0.125,0.643-0.372,0.888c-0.25,0.248-0.547,0.374-0.893,0.374c-0.343,0-0.638-0.126-0.886-0.374
				c-0.248-0.245-0.375-0.541-0.375-0.888c0-0.353,0.126-0.651,0.37-0.893C124.08,169.668,124.377,169.545,124.729,169.545"/>
			<path fill="#929496" d="M138.494,174.554l-2.459,8.552l-0.277,1.146c-0.026,0.109-0.042,0.202-0.042,0.277
				c0,0.135,0.049,0.253,0.129,0.353c0.065,0.078,0.151,0.115,0.253,0.115c0.107,0,0.249-0.068,0.428-0.202
				c0.326-0.245,0.764-0.747,1.311-1.513l0.43,0.302c-0.577,0.876-1.176,1.541-1.791,1.999c-0.613,0.46-1.183,0.688-1.701,0.688
				c-0.365,0-0.636-0.092-0.816-0.27c-0.181-0.183-0.271-0.447-0.271-0.789c0-0.413,0.092-0.955,0.276-1.629l0.265-0.949
				c-1.101,1.442-2.113,2.447-3.04,3.017c-0.664,0.414-1.315,0.62-1.956,0.62c-0.615,0-1.144-0.255-1.589-0.766
				c-0.444-0.507-0.667-1.207-0.667-2.102c0-1.336,0.399-2.744,1.203-4.228c0.802-1.486,1.823-2.673,3.06-3.566
				c0.966-0.705,1.88-1.057,2.738-1.057c0.511,0,0.937,0.134,1.279,0.403c0.34,0.267,0.602,0.714,0.776,1.336l0.453-1.438
				L138.494,174.554z M134.003,175.21c-0.538,0-1.109,0.253-1.714,0.755c-0.86,0.717-1.621,1.772-2.291,3.181
				c-0.67,1.401-1.004,2.673-1.004,3.807c0,0.573,0.145,1.024,0.432,1.358c0.285,0.33,0.613,0.497,0.982,0.497
				c0.917,0,1.914-0.676,2.991-2.031c1.438-1.8,2.157-3.645,2.157-5.538c0-0.715-0.139-1.231-0.418-1.552
				C134.86,175.367,134.481,175.21,134.003,175.21"/>
			<path fill="#929496" d="M150.533,186.357l1.476-14.251c0.057-0.548,0.087-0.97,0.087-1.261c0-0.488-0.139-0.859-0.416-1.114
				c-0.28-0.247-0.779-0.385-1.5-0.401l0.136-0.465h6.412l-0.14,0.465c-0.86-0.008-1.446,0.147-1.761,0.459
				c-0.315,0.319-0.53,1.086-0.65,2.317l-0.946,9.232l6.496-10.027c0.009-0.172,0.013-0.311,0.013-0.429
				c0-0.469-0.141-0.832-0.415-1.086c-0.281-0.252-0.878-0.407-1.793-0.467l0.103-0.465h6.922l-0.136,0.465
				c-0.802,0.007-1.337,0.078-1.616,0.202c-0.202,0.094-0.372,0.241-0.51,0.447c-0.14,0.207-0.251,0.555-0.334,1.054
				c-0.027,0.141-0.128,1.119-0.311,2.926c-0.179,1.809-0.448,4.268-0.811,7.38l5.411-8.226c0.587-0.899,0.961-1.53,1.11-1.89
				c0.151-0.365,0.228-0.67,0.228-0.923c0-0.232-0.1-0.445-0.304-0.626c-0.201-0.178-0.546-0.296-1.034-0.345l0.103-0.465h5.07
				l-0.127,0.465c-0.444,0.033-0.841,0.143-1.184,0.328c-0.346,0.183-0.756,0.535-1.228,1.06c-0.267,0.304-0.822,1.1-1.664,2.396
				l-8.591,13.244h-0.466l1.388-13.244l-8.588,13.244H150.533z"/>
			<path fill="#929496" d="M178.936,178.498c0,1.264-0.334,2.513-1.002,3.749c-0.667,1.235-1.599,2.213-2.796,2.94
				c-1.191,0.723-2.351,1.084-3.481,1.084c-1.153,0-2.089-0.369-2.816-1.105c-0.727-0.736-1.089-1.687-1.089-2.854
				c0-1.236,0.351-2.477,1.06-3.724c0.713-1.244,1.664-2.229,2.852-2.951c1.191-0.721,2.341-1.084,3.451-1.084
				c1.109,0,2.025,0.365,2.745,1.097C178.579,176.38,178.936,177.33,178.936,178.498 M176.842,177.631
				c0-0.783-0.191-1.381-0.576-1.799c-0.379-0.415-0.873-0.622-1.481-0.622c-1.236,0-2.374,0.883-3.413,2.653
				c-1.039,1.769-1.556,3.527-1.556,5.274c0,0.804,0.201,1.42,0.604,1.854c0.408,0.436,0.912,0.648,1.523,0.648
				c1.189,0,2.301-0.88,3.342-2.642C176.325,181.237,176.842,179.446,176.842,177.631"/>
			<path fill="#929496" d="M181.451,175.257l4.35-0.703l-1.815,6.129c1.472-2.514,2.809-4.272,4.013-5.272
				c0.682-0.571,1.237-0.856,1.665-0.856c0.277,0,0.494,0.079,0.656,0.243c0.158,0.165,0.241,0.402,0.241,0.715
				c0,0.555-0.146,1.086-0.433,1.59c-0.198,0.377-0.49,0.564-0.867,0.564c-0.195,0-0.36-0.062-0.501-0.188
				c-0.136-0.125-0.225-0.318-0.256-0.579c-0.021-0.16-0.056-0.265-0.114-0.317c-0.067-0.068-0.146-0.101-0.24-0.101
				c-0.145,0-0.277,0.032-0.405,0.101c-0.217,0.116-0.551,0.444-0.993,0.983c-0.7,0.826-1.457,1.895-2.272,3.207
				c-0.351,0.551-0.655,1.18-0.91,1.88c-0.352,0.958-0.555,1.53-0.605,1.724l-0.405,1.592h-1.926l2.332-7.835
				c0.271-0.904,0.405-1.555,0.405-1.942c0-0.148-0.063-0.277-0.19-0.376c-0.168-0.137-0.392-0.204-0.667-0.204
				c-0.18,0-0.503,0.04-0.972,0.114L181.451,175.257z"/>
			<path fill="#929496" d="M197.764,168.03l-3.58,12.4l1.436-1.222c1.574-1.331,2.596-2.315,3.066-2.955
				c0.152-0.21,0.229-0.369,0.229-0.479c0-0.076-0.029-0.145-0.077-0.213c-0.052-0.07-0.152-0.121-0.299-0.165
				c-0.147-0.042-0.403-0.063-0.775-0.063h-0.441l0.135-0.478h5.515l-0.125,0.478c-0.631,0.034-1.175,0.136-1.635,0.299
				c-0.458,0.163-0.902,0.403-1.329,0.725c-0.853,0.63-1.409,1.068-1.68,1.311l-1.085,0.962c0.188,0.603,0.414,1.451,0.68,2.533
				c0.456,1.798,0.761,2.87,0.924,3.204c0.16,0.337,0.325,0.507,0.491,0.507c0.141,0,0.314-0.073,0.505-0.218
				c0.438-0.319,0.904-0.826,1.4-1.525l0.44,0.317c-0.916,1.15-1.618,1.908-2.109,2.276c-0.486,0.362-0.929,0.548-1.333,0.548
				c-0.354,0-0.626-0.141-0.823-0.417c-0.335-0.495-0.89-2.452-1.675-5.867l-1.728,1.503l-1.3,4.478h-1.97l4.191-14.394l0.353-1.224
				c0.041-0.208,0.062-0.394,0.062-0.554c0-0.201-0.079-0.37-0.232-0.504c-0.156-0.133-0.381-0.204-0.677-0.204
				c-0.192,0-0.5,0.045-0.92,0.128v-0.44L197.764,168.03z"/>
			<path fill="#929496" d="M215.961,185.503l-0.145,0.465h-7.035l0.176-0.465c0.705-0.021,1.174-0.077,1.399-0.177
				c0.373-0.145,0.645-0.342,0.821-0.595c0.279-0.395,0.563-1.099,0.859-2.117l2.973-10.32c0.252-0.858,0.383-1.505,0.383-1.942
				c0-0.22-0.058-0.404-0.164-0.554c-0.112-0.153-0.276-0.271-0.502-0.35c-0.221-0.078-0.66-0.117-1.305-0.117l0.151-0.466h6.612
				l-0.142,0.466c-0.535-0.011-0.939,0.049-1.195,0.177c-0.381,0.167-0.671,0.406-0.867,0.719c-0.196,0.31-0.45,1-0.761,2.067
				l-2.966,10.32c-0.27,0.948-0.403,1.552-0.403,1.813c0,0.21,0.052,0.39,0.158,0.536c0.103,0.146,0.275,0.262,0.502,0.343
				C214.746,185.386,215.229,185.451,215.961,185.503"/>
			<path fill="#929496" d="M223.848,174.554l-1.681,5.738c1.571-2.345,2.781-3.89,3.617-4.629c0.832-0.741,1.64-1.109,2.413-1.109
				c0.419,0,0.768,0.135,1.044,0.413c0.269,0.279,0.412,0.639,0.412,1.085c0,0.506-0.126,1.179-0.371,2.019l-1.538,5.313
				c-0.178,0.611-0.264,0.986-0.264,1.122c0,0.115,0.033,0.215,0.099,0.294c0.068,0.082,0.14,0.123,0.214,0.123
				c0.104,0,0.225-0.057,0.369-0.165c0.445-0.356,0.933-0.892,1.459-1.619l0.394,0.245c-0.784,1.118-1.522,1.917-2.222,2.396
				c-0.488,0.327-0.924,0.492-1.311,0.492c-0.312,0-0.56-0.094-0.746-0.284c-0.184-0.19-0.275-0.443-0.275-0.765
				c0-0.403,0.142-1.097,0.431-2.084l1.459-5.068c0.188-0.63,0.28-1.12,0.28-1.474c0-0.17-0.055-0.306-0.167-0.412
				c-0.107-0.103-0.243-0.158-0.401-0.158c-0.232,0-0.518,0.104-0.844,0.303c-0.621,0.379-1.27,1.005-1.946,1.875
				c-0.669,0.869-1.378,1.983-2.128,3.335c-0.396,0.719-0.725,1.498-0.986,2.348l-0.631,2.081h-1.893l2.297-7.897
				c0.27-0.95,0.407-1.521,0.407-1.714c0-0.187-0.077-0.347-0.222-0.485c-0.148-0.139-0.33-0.208-0.551-0.208
				c-0.102,0-0.281,0.016-0.531,0.051l-0.479,0.076l-0.075-0.456L223.848,174.554z"/>
			<path fill="#929496" d="M237.345,174.554l-3.268,11.29c-0.583,2.018-1.378,3.472-2.387,4.361
				c-1.017,0.892-2.114,1.336-3.288,1.336c-0.531,0-0.93-0.119-1.204-0.365c-0.272-0.241-0.411-0.532-0.411-0.869
				c0-0.261,0.105-0.49,0.307-0.688c0.209-0.196,0.443-0.298,0.715-0.298c0.245,0,0.457,0.082,0.644,0.24
				c0.151,0.129,0.229,0.27,0.229,0.432c0,0.216-0.11,0.406-0.315,0.569c-0.12,0.09-0.178,0.165-0.178,0.227l0.024,0.064
				c0.025,0.03,0.067,0.057,0.113,0.07c0.05,0.017,0.127,0.028,0.226,0.028c0.684,0,1.263-0.217,1.746-0.652
				c0.485-0.431,0.916-1.293,1.296-2.589l2.827-9.692c0.273-0.947,0.415-1.471,0.415-1.573c0-0.202-0.092-0.387-0.271-0.544
				c-0.182-0.157-0.407-0.238-0.688-0.238c-0.106,0-0.233,0.013-0.381,0.035c-0.105,0.019-0.267,0.046-0.477,0.076v-0.441
				L237.345,174.554z M237.141,169.555c0.352,0,0.656,0.126,0.904,0.375c0.249,0.246,0.374,0.546,0.374,0.9
				s-0.125,0.654-0.374,0.901c-0.248,0.25-0.553,0.375-0.904,0.375c-0.351,0-0.652-0.125-0.898-0.375
				c-0.248-0.247-0.373-0.547-0.373-0.901s0.125-0.654,0.373-0.9C236.488,169.681,236.79,169.555,237.141,169.555"/>
			<path fill="#929496" d="M250.61,174.855l-2.191,7.518c-0.33,1.117-0.497,1.826-0.497,2.115c0,0.155,0.031,0.268,0.085,0.337
				c0.051,0.075,0.127,0.107,0.218,0.107c0.145,0,0.304-0.065,0.48-0.195c0.167-0.131,0.604-0.647,1.301-1.56l0.374,0.292
				c-0.663,1.052-1.344,1.824-2.039,2.32c-0.461,0.321-0.911,0.481-1.336,0.481c-0.329,0-0.582-0.094-0.773-0.279
				c-0.181-0.183-0.276-0.422-0.276-0.718c0-0.284,0.055-0.664,0.164-1.136c0.135-0.622,0.52-1.976,1.148-4.059
				c-1.426,2.342-2.628,3.962-3.586,4.853c-0.965,0.892-1.86,1.339-2.681,1.339c-0.392,0-0.716-0.133-0.985-0.403
				c-0.27-0.269-0.404-0.611-0.404-1.023c0-0.628,0.186-1.598,0.556-2.9l1.096-3.897c0.269-0.932,0.402-1.516,0.402-1.742
				c0-0.101-0.032-0.186-0.106-0.259c-0.068-0.07-0.146-0.107-0.233-0.107c-0.174,0-0.351,0.062-0.531,0.191
				c-0.174,0.124-0.576,0.593-1.196,1.399l-0.39-0.277c0.631-0.975,1.299-1.693,2.003-2.155c0.54-0.365,1.035-0.543,1.489-0.543
				c0.312,0,0.566,0.097,0.768,0.295c0.196,0.198,0.294,0.453,0.294,0.764c0,0.454-0.169,1.266-0.504,2.435l-1.188,4.074
				c-0.327,1.109-0.492,1.812-0.492,2.105c0,0.162,0.055,0.29,0.159,0.386c0.105,0.099,0.247,0.146,0.422,0.146
				c0.28,0,0.636-0.139,1.085-0.418c0.443-0.276,1.041-0.893,1.784-1.848c0.743-0.954,1.36-1.849,1.843-2.686
				c0.484-0.839,1-2.166,1.548-3.992l0.271-0.959H250.61z"/>
			<path fill="#929496" d="M253.101,175.257l4.357-0.703l-1.816,6.129c1.47-2.514,2.807-4.272,4.009-5.272
				c0.682-0.571,1.237-0.856,1.667-0.856c0.277,0,0.495,0.079,0.657,0.243c0.157,0.165,0.236,0.402,0.236,0.715
				c0,0.555-0.143,1.086-0.427,1.59c-0.202,0.377-0.494,0.564-0.869,0.564c-0.194,0-0.361-0.062-0.502-0.188
				c-0.138-0.125-0.228-0.318-0.26-0.579c-0.017-0.16-0.049-0.265-0.11-0.317c-0.069-0.068-0.148-0.101-0.24-0.101
				c-0.142,0-0.278,0.032-0.404,0.101c-0.214,0.116-0.55,0.444-0.994,0.983c-0.698,0.826-1.458,1.895-2.273,3.207
				c-0.353,0.551-0.654,1.18-0.907,1.88c-0.356,0.958-0.552,1.53-0.605,1.724l-0.404,1.592h-1.929l2.333-7.835
				c0.268-0.904,0.404-1.555,0.404-1.942c0-0.148-0.063-0.277-0.188-0.376c-0.171-0.137-0.39-0.204-0.669-0.204
				c-0.178,0-0.502,0.04-0.974,0.114L253.101,175.257z"/>
			<path fill="#929496" d="M267.158,174.554c0.285,0.485,0.481,0.941,0.597,1.369c0.106,0.423,0.215,1.256,0.324,2.5l0.555,6.208
				c0.503-0.606,1.236-1.569,2.197-2.879c0.461-0.641,1.034-1.506,1.716-2.605c0.412-0.673,0.663-1.147,0.755-1.413
				c0.049-0.134,0.077-0.276,0.077-0.418c0-0.094-0.034-0.171-0.09-0.228c-0.059-0.061-0.212-0.131-0.458-0.21
				c-0.25-0.079-0.455-0.228-0.618-0.439c-0.166-0.217-0.245-0.46-0.245-0.739c0-0.345,0.099-0.621,0.3-0.831
				c0.201-0.211,0.454-0.314,0.758-0.314c0.371,0,0.685,0.153,0.946,0.461c0.261,0.304,0.393,0.726,0.393,1.265
				c0,0.664-0.229,1.424-0.684,2.278c-0.453,0.854-1.328,2.163-2.622,3.927c-1.294,1.768-2.863,3.693-4.708,5.78
				c-1.27,1.438-2.212,2.342-2.827,2.715c-0.614,0.377-1.138,0.562-1.575,0.562c-0.261,0-0.489-0.098-0.684-0.293
				c-0.201-0.197-0.299-0.43-0.299-0.686c0-0.329,0.136-0.629,0.41-0.899c0.274-0.27,0.567-0.402,0.885-0.402
				c0.171,0,0.309,0.037,0.419,0.115c0.068,0.041,0.142,0.158,0.222,0.356c0.08,0.199,0.151,0.333,0.221,0.395
				c0.043,0.044,0.095,0.069,0.15,0.069c0.054,0,0.14-0.045,0.27-0.131c0.457-0.281,0.996-0.738,1.61-1.363
				c0.805-0.82,1.4-1.493,1.791-2.014l-0.707-7.998c-0.118-1.32-0.292-2.124-0.525-2.411c-0.242-0.284-0.632-0.431-1.187-0.431
				c-0.179,0-0.497,0.025-0.951,0.079l-0.112-0.464L267.158,174.554z"/>
			<path fill="#929496" d="M294.096,185.968h-12.679l0.178-0.465c0.673-0.02,1.121-0.073,1.35-0.167
				c0.352-0.149,0.611-0.346,0.782-0.594c0.262-0.384,0.543-1.083,0.833-2.091l3.016-10.409c0.251-0.856,0.376-1.487,0.376-1.891
				c0-0.318-0.116-0.567-0.346-0.742c-0.232-0.177-0.668-0.268-1.308-0.268c-0.142,0-0.256-0.005-0.337-0.011l0.151-0.465h6.974
				l-0.104,0.465c-0.78,0-1.333,0.076-1.665,0.224c-0.325,0.155-0.602,0.402-0.816,0.745c-0.154,0.229-0.401,0.936-0.741,2.121
				l-2.967,10.23c-0.227,0.771-0.34,1.312-0.34,1.614c0,0.201,0.113,0.396,0.34,0.579c0.144,0.126,0.466,0.193,0.973,0.193h1.65
				c1.2,0,2.157-0.156,2.864-0.458c0.521-0.227,1-0.567,1.438-1.02c0.234-0.254,0.648-0.881,1.247-1.881l0.327-0.568h0.466
				L294.096,185.968z"/>
			<path fill="#929496" d="M309.041,174.554l-2.458,8.552l-0.28,1.146c-0.022,0.109-0.039,0.202-0.039,0.277
				c0,0.135,0.043,0.253,0.129,0.353c0.065,0.078,0.148,0.115,0.252,0.115c0.106,0,0.249-0.068,0.43-0.202
				c0.326-0.245,0.764-0.747,1.312-1.513l0.428,0.302c-0.578,0.876-1.179,1.541-1.792,1.999c-0.612,0.46-1.18,0.688-1.702,0.688
				c-0.359,0-0.632-0.092-0.811-0.27c-0.184-0.183-0.275-0.447-0.275-0.789c0-0.413,0.094-0.955,0.281-1.629l0.264-0.949
				c-1.103,1.442-2.116,2.447-3.038,3.017c-0.664,0.414-1.318,0.62-1.958,0.62c-0.615,0-1.145-0.255-1.591-0.766
				c-0.446-0.507-0.666-1.207-0.666-2.102c0-1.336,0.405-2.744,1.204-4.228c0.803-1.486,1.824-2.673,3.062-3.566
				c0.963-0.705,1.874-1.057,2.735-1.057c0.514,0,0.938,0.134,1.278,0.403c0.341,0.267,0.602,0.714,0.778,1.336l0.453-1.438
				L309.041,174.554z M304.548,175.21c-0.538,0-1.105,0.253-1.713,0.755c-0.858,0.717-1.617,1.772-2.289,3.181
				c-0.673,1.401-1.004,2.673-1.004,3.807c0,0.573,0.144,1.024,0.433,1.358c0.283,0.33,0.612,0.497,0.981,0.497
				c0.916,0,1.912-0.676,2.99-2.031c1.44-1.8,2.155-3.645,2.155-5.538c0-0.715-0.141-1.231-0.418-1.552
				C305.407,175.367,305.029,175.21,304.548,175.21"/>
			<path fill="#929496" d="M321.136,174.554l0.868,9.459c1.466-1.716,2.631-3.325,3.507-4.833c0.514-0.882,0.77-1.521,0.77-1.914
				c0-0.186-0.04-0.35-0.123-0.491c-0.035-0.078-0.17-0.188-0.398-0.336c-0.233-0.147-0.393-0.297-0.489-0.453
				c-0.089-0.158-0.137-0.322-0.137-0.502c0-0.261,0.098-0.479,0.291-0.659c0.193-0.179,0.443-0.271,0.741-0.271
				c0.35,0,0.638,0.128,0.875,0.385c0.245,0.255,0.363,0.598,0.363,1.026c0,0.438-0.061,0.847-0.188,1.224
				c-0.253,0.724-0.746,1.658-1.479,2.799c-0.892,1.372-1.808,2.645-2.757,3.818c-0.941,1.173-1.648,1.991-2.11,2.466h-0.467
				l-0.821-8.729l-5.209,8.729h-0.557c-0.058-3.592-0.238-6.426-0.539-8.5c-0.127-0.871-0.338-1.435-0.633-1.705
				c-0.21-0.193-0.533-0.292-0.958-0.292c-0.243,0-0.557,0.026-0.937,0.074v-0.452l3.623-0.843c0.505,1.402,0.833,3.56,0.981,6.471
				c0.051,1.102,0.096,1.795,0.129,2.082l5.185-8.553H321.136z"/>
			<path fill="#929496" d="M332.602,174.554c0.288,0.485,0.482,0.941,0.592,1.369c0.112,0.423,0.222,1.256,0.328,2.5l0.556,6.208
				c0.506-0.606,1.239-1.569,2.198-2.879c0.46-0.641,1.033-1.506,1.716-2.605c0.41-0.673,0.663-1.147,0.752-1.413
				c0.055-0.134,0.075-0.276,0.075-0.418c0-0.094-0.026-0.171-0.085-0.228c-0.059-0.061-0.213-0.131-0.46-0.21
				c-0.25-0.079-0.454-0.228-0.618-0.439c-0.166-0.217-0.25-0.46-0.25-0.739c0-0.345,0.102-0.621,0.307-0.831
				c0.201-0.211,0.456-0.314,0.755-0.314c0.368,0,0.686,0.153,0.947,0.461c0.262,0.304,0.393,0.726,0.393,1.265
				c0,0.664-0.228,1.424-0.681,2.278c-0.453,0.854-1.328,2.163-2.624,3.927c-1.298,1.768-2.869,3.693-4.707,5.78
				c-1.272,1.438-2.212,2.342-2.828,2.715c-0.614,0.377-1.137,0.562-1.573,0.562c-0.263,0-0.489-0.098-0.689-0.293
				c-0.196-0.197-0.295-0.43-0.295-0.686c0-0.329,0.138-0.629,0.411-0.899c0.271-0.27,0.569-0.402,0.886-0.402
				c0.171,0,0.308,0.037,0.42,0.115c0.066,0.041,0.138,0.158,0.219,0.356c0.081,0.199,0.155,0.333,0.219,0.395
				c0.047,0.044,0.095,0.069,0.151,0.069c0.053,0,0.144-0.045,0.265-0.131c0.466-0.281,1.005-0.738,1.613-1.363
				c0.811-0.82,1.407-1.493,1.793-2.014l-0.705-7.998c-0.119-1.32-0.294-2.124-0.528-2.411c-0.238-0.284-0.633-0.431-1.188-0.431
				c-0.174,0-0.493,0.025-0.946,0.079l-0.112-0.464L332.602,174.554z"/>
			<path fill="#929496" d="M343.151,181.211c-0.056,0.422-0.085,0.77-0.085,1.047c0,0.753,0.263,1.386,0.792,1.91
				c0.531,0.527,1.172,0.792,1.929,0.792c0.607,0,1.191-0.125,1.747-0.374c0.561-0.249,1.394-0.798,2.493-1.646l0.265,0.367
				c-1.992,1.977-3.892,2.965-5.7,2.965c-1.231,0-2.153-0.385-2.775-1.162c-0.623-0.772-0.937-1.627-0.937-2.56
				c0-1.253,0.387-2.536,1.163-3.847c0.773-1.313,1.744-2.333,2.915-3.061c1.17-0.725,2.37-1.089,3.604-1.089
				c0.893,0,1.553,0.178,1.983,0.543c0.427,0.36,0.641,0.788,0.641,1.283c0,0.701-0.273,1.369-0.826,2.006
				c-0.733,0.831-1.812,1.505-3.234,2.018C346.184,180.749,344.862,181.018,343.151,181.211 M343.243,180.596
				c1.242-0.146,2.252-0.389,3.036-0.733c1.035-0.461,1.812-1.016,2.33-1.658c0.519-0.644,0.777-1.255,0.777-1.836
				c0-0.352-0.114-0.64-0.334-0.856c-0.226-0.22-0.542-0.328-0.958-0.328c-0.856,0-1.765,0.454-2.729,1.368
				C344.402,177.464,343.698,178.811,343.243,180.596"/>
			<path fill="#929496" d="M353.338,175.257l4.351-0.703l-1.816,6.129c1.468-2.514,2.806-4.272,4.008-5.272
				c0.681-0.571,1.239-0.856,1.667-0.856c0.28,0,0.497,0.079,0.655,0.243c0.161,0.165,0.239,0.402,0.239,0.715
				c0,0.555-0.143,1.086-0.426,1.59c-0.205,0.377-0.494,0.564-0.872,0.564c-0.194,0-0.36-0.062-0.496-0.188
				c-0.144-0.125-0.228-0.318-0.262-0.579c-0.016-0.16-0.053-0.265-0.115-0.317c-0.064-0.068-0.146-0.101-0.237-0.101
				c-0.144,0-0.277,0.032-0.404,0.101c-0.218,0.116-0.548,0.444-0.996,0.983c-0.696,0.826-1.453,1.895-2.271,3.207
				c-0.352,0.551-0.655,1.18-0.906,1.88c-0.354,0.958-0.552,1.53-0.606,1.724l-0.403,1.592h-1.931l2.334-7.835
				c0.27-0.904,0.403-1.555,0.403-1.942c0-0.148-0.06-0.277-0.188-0.376c-0.171-0.137-0.392-0.204-0.668-0.204
				c-0.175,0-0.501,0.04-0.972,0.114L353.338,175.257z"/>
			<path fill="#929496" d="M371.669,174.554l-0.768,3.869h-0.465c-0.043-1.125-0.283-1.946-0.721-2.458
				c-0.438-0.515-0.979-0.771-1.628-0.771c-0.52,0-0.936,0.142-1.244,0.431c-0.306,0.284-0.461,0.63-0.461,1.035
				c0,0.277,0.062,0.543,0.189,0.792c0.118,0.252,0.385,0.61,0.798,1.062c1.092,1.192,1.802,2.092,2.117,2.697
				c0.318,0.607,0.481,1.179,0.481,1.716c0,0.879-0.367,1.651-1.094,2.327c-0.728,0.68-1.644,1.018-2.753,1.018
				c-0.607,0-1.307-0.144-2.097-0.428c-0.278-0.104-0.49-0.151-0.641-0.151c-0.382,0-0.665,0.193-0.858,0.579h-0.472l0.773-4.091
				h0.465c0.051,1.284,0.32,2.186,0.796,2.716c0.482,0.531,1.136,0.796,1.971,0.796c0.636,0,1.145-0.179,1.517-0.536
				c0.372-0.359,0.562-0.799,0.562-1.318c0-0.337-0.067-0.649-0.199-0.936c-0.239-0.504-0.732-1.202-1.482-2.094
				c-0.755-0.892-1.237-1.56-1.454-2.007c-0.212-0.444-0.316-0.89-0.316-1.335c0-0.816,0.294-1.507,0.885-2.07
				c0.593-0.562,1.357-0.843,2.291-0.843c0.271,0,0.516,0.021,0.73,0.062c0.119,0.023,0.393,0.119,0.829,0.282
				c0.431,0.165,0.72,0.246,0.862,0.246c0.363,0,0.666-0.196,0.909-0.591H371.669z"/>
			<path fill="#282560" d="M7.918,140.436c0-3.985,0-4.72-0.051-5.555c-0.051-0.892-0.261-1.313-1.129-1.497
				c-0.208-0.052-0.653-0.075-1.02-0.075c-0.287,0-0.446-0.057-0.446-0.235c0-0.185,0.185-0.232,0.58-0.232
				c1.388,0,3.037,0.076,3.586,0.076c0.893,0,2.881-0.076,3.699-0.076c1.649,0,3.407,0.153,4.822,1.123
				c0.731,0.497,1.78,1.833,1.78,3.589c0,1.942-0.811,3.725-3.461,5.873c2.334,2.934,4.141,5.267,5.688,6.891
				c1.465,1.521,2.542,1.701,2.934,1.777c0.29,0.056,0.526,0.082,0.736,0.082c0.209,0,0.316,0.078,0.316,0.21
				c0,0.209-0.185,0.262-0.5,0.262h-2.49c-1.468,0-2.122-0.129-2.807-0.498c-1.126-0.605-2.118-1.833-3.584-3.854
				c-1.049-1.438-2.255-3.219-2.599-3.614c-0.131-0.155-0.283-0.184-0.469-0.184l-2.278-0.055c-0.13,0-0.211,0.055-0.211,0.213
				v0.363c0,2.438,0,4.513,0.132,5.607c0.079,0.767,0.232,1.342,1.022,1.443c0.392,0.051,0.97,0.105,1.284,0.105
				c0.208,0,0.314,0.078,0.314,0.21c0,0.185-0.185,0.262-0.524,0.262c-1.52,0-3.46-0.077-3.853-0.077
				c-0.5,0-2.148,0.077-3.196,0.077c-0.34,0-0.526-0.077-0.526-0.262c0-0.132,0.107-0.21,0.419-0.21c0.396,0,0.71-0.055,0.948-0.105
				c0.522-0.102,0.652-0.677,0.756-1.443c0.129-1.095,0.129-3.169,0.129-5.578V140.436z M11.013,142.51
				c0,0.286,0.053,0.389,0.237,0.468c0.552,0.182,1.338,0.264,1.992,0.264c1.043,0,1.389-0.107,1.86-0.445
				c0.784-0.58,1.546-1.779,1.546-3.936c0-3.722-2.465-4.794-4.009-4.794c-0.652,0-1.125,0.027-1.389,0.102
				c-0.184,0.054-0.237,0.161-0.237,0.369V142.51z"/>
			<path fill="#282560" d="M28.93,142.24c0-3.38,0-4.005-0.029-4.713c-0.05-0.761-0.26-0.992-0.995-1.207
				c-0.182-0.057-0.576-0.08-0.92-0.08c-0.233,0-0.392-0.075-0.392-0.229c0-0.161,0.186-0.214,0.524-0.214
				c1.209,0,2.674,0.053,3.33,0.053c0.736,0,5.846,0.025,6.289,0c0.42-0.025,0.79-0.102,0.971-0.134
				c0.131-0.024,0.262-0.101,0.366-0.101c0.13,0,0.157,0.101,0.157,0.209c0,0.16-0.132,0.416-0.183,1.442
				c-0.028,0.235-0.078,1.204-0.13,1.466c-0.027,0.105-0.079,0.368-0.265,0.368c-0.159,0-0.18-0.104-0.18-0.287
				c0-0.16-0.027-0.55-0.157-0.813c-0.187-0.396-0.369-0.708-1.521-0.816c-0.395-0.051-3.148-0.1-3.617-0.1
				c-0.103,0-0.157,0.073-0.157,0.208v5.502c0,0.131,0.025,0.232,0.157,0.232c0.523,0,3.512,0,4.037-0.049
				c0.551-0.053,0.889-0.103,1.101-0.343c0.179-0.157,0.258-0.285,0.363-0.285c0.107,0,0.183,0.104,0.183,0.23
				c0,0.135-0.05,0.504-0.183,1.632c-0.052,0.444-0.105,1.338-0.105,1.49c0,0.187-0.022,0.497-0.235,0.497
				c-0.155,0-0.21-0.078-0.21-0.18c-0.024-0.243-0.024-0.525-0.077-0.816c-0.131-0.443-0.417-0.788-1.285-0.865
				c-0.421-0.054-3.039-0.102-3.616-0.102c-0.104,0-0.129,0.102-0.129,0.233v1.785c0,0.757-0.027,2.646,0,3.3
				c0.054,1.525,0.762,1.857,3.118,1.857c0.605,0,1.576-0.019,2.177-0.281c0.575-0.268,0.834-0.74,0.994-1.655
				c0.053-0.234,0.105-0.342,0.261-0.342c0.182,0,0.21,0.287,0.21,0.524c0,0.501-0.185,2.019-0.315,2.463
				c-0.156,0.576-0.367,0.576-1.229,0.576c-1.732,0-3.119-0.023-4.248-0.077c-1.124-0.027-1.99-0.05-2.675-0.05
				c-0.255,0-0.756,0.022-1.304,0.022c-0.555,0.027-1.13,0.053-1.601,0.053c-0.291,0-0.448-0.075-0.448-0.235
				c0-0.103,0.08-0.234,0.369-0.234c0.341,0,0.602-0.026,0.81-0.082c0.471-0.097,0.605-0.521,0.681-1.174
				c0.109-0.944,0.109-2.7,0.109-4.747V142.24z"/>
			<path fill="#282560" d="M43.516,142.24c0-3.38,0-4.005-0.023-4.713c-0.055-0.761-0.29-1.021-0.788-1.179
				c-0.263-0.085-0.551-0.108-0.84-0.108c-0.235,0-0.362-0.046-0.362-0.256c0-0.135,0.18-0.188,0.551-0.188
				c0.861,0,2.437,0.053,3.088,0.053c0.58,0,2.074-0.053,2.966-0.053c0.286,0,0.467,0.053,0.467,0.188
				c0,0.21-0.13,0.256-0.365,0.256c-0.239,0-0.421,0.023-0.679,0.08c-0.629,0.104-0.815,0.42-0.867,1.207
				c-0.049,0.708-0.049,1.333-0.049,4.713v3.933c0,2.151,0,3.935,0.101,4.877c0.081,0.601,0.232,0.947,0.917,1.044
				c0.315,0.056,0.837,0.082,1.178,0.082c0.264,0,0.366,0.132,0.366,0.234c0,0.16-0.182,0.235-0.446,0.235
				c-1.515,0-3.089-0.075-3.716-0.075c-0.524,0-2.1,0.075-3.019,0.075c-0.286,0-0.445-0.075-0.445-0.235
				c0-0.103,0.08-0.234,0.365-0.234c0.342,0,0.609-0.026,0.815-0.082c0.473-0.097,0.605-0.417,0.681-1.069
				c0.105-0.917,0.105-2.7,0.105-4.852V142.24z"/>
			<path fill="#282560" d="M55.72,149.609c0.052,1.728,0.341,2.253,0.784,2.408c0.395,0.133,0.84,0.158,1.21,0.158
				c0.26,0,0.392,0.107,0.392,0.234c0,0.183-0.21,0.235-0.525,0.235c-1.494,0-2.571-0.075-2.988-0.075
				c-0.21,0-1.312,0.075-2.493,0.075c-0.309,0-0.519-0.025-0.519-0.235c0-0.127,0.156-0.234,0.364-0.234
				c0.317,0,0.735-0.025,1.049-0.105c0.602-0.156,0.682-0.761,0.707-2.697l0.212-13.206c0-0.451,0.154-0.762,0.392-0.762
				c0.287,0,0.599,0.343,0.995,0.734c0.288,0.284,3.747,3.827,7.104,7.102c1.574,1.544,4.634,4.689,4.975,5.003h0.108l-0.236-9.899
				c-0.029-1.37-0.238-1.76-0.787-1.975c-0.34-0.13-0.891-0.13-1.204-0.13c-0.291,0-0.369-0.101-0.369-0.229
				c0-0.187,0.235-0.213,0.581-0.213c1.204,0,2.436,0.052,2.933,0.052c0.264,0,1.125-0.052,2.25-0.052
				c0.318,0,0.528,0.026,0.528,0.213c0,0.129-0.132,0.229-0.391,0.229c-0.239,0-0.424,0-0.711,0.08
				c-0.63,0.186-0.811,0.581-0.84,1.835l-0.26,14.048c0,0.494-0.188,0.706-0.366,0.706c-0.394,0-0.707-0.235-0.946-0.471
				c-1.437-1.334-4.32-4.087-6.735-6.419c-2.514-2.413-4.95-5.11-5.399-5.508h-0.076L55.72,149.609z"/>
			<path fill="#282560" d="M88.154,143.061c0.051,0,0.131-0.033,0.131-0.163v-0.471c0-3.381-0.022-4.19-0.048-4.9
				c-0.055-0.759-0.265-0.991-1.001-1.206c-0.18-0.056-0.575-0.081-0.889-0.081c-0.261,0-0.393-0.072-0.393-0.229
				c0-0.161,0.157-0.213,0.495-0.213c1.233,0,2.858,0.052,3.459,0.052c0.554,0,2.072-0.052,2.964-0.052c0.34,0,0.5,0.052,0.5,0.213
				c0,0.156-0.159,0.229-0.424,0.229c-0.18,0-0.392,0.025-0.678,0.081c-0.603,0.105-0.788,0.421-0.84,1.206
				c-0.052,0.71-0.052,1.334-0.052,4.714v3.934c0,2.047,0,3.803,0.104,4.771c0.078,0.627,0.21,1.051,0.918,1.149
				c0.314,0.055,0.812,0.082,1.178,0.082c0.239,0,0.367,0.131,0.367,0.234c0,0.158-0.185,0.236-0.472,0.236
				c-1.494,0-3.012-0.078-3.638-0.078c-0.528,0-2.154,0.078-3.046,0.078c-0.311,0-0.497-0.078-0.497-0.236
				c0-0.104,0.108-0.234,0.368-0.234c0.369,0,0.629-0.027,0.84-0.082c0.471-0.099,0.601-0.522,0.681-1.174
				c0.103-0.943,0.103-2.649,0.103-4.689v-1.704c0-0.083-0.081-0.131-0.131-0.131h-8.698c-0.08,0-0.16,0.017-0.16,0.131v1.704
				c0,2.04,0.028,3.746,0.134,4.714c0.076,0.627,0.208,1.051,0.888,1.149c0.316,0.055,0.84,0.082,1.18,0.082
				c0.261,0,0.37,0.131,0.37,0.234c0,0.158-0.188,0.236-0.476,0.236c-1.494,0-3.089-0.078-3.746-0.078
				c-0.525,0-2.042,0.078-2.962,0.078c-0.29,0-0.447-0.078-0.447-0.236c0-0.104,0.08-0.234,0.367-0.234
				c0.34,0,0.608-0.027,0.815-0.082c0.469-0.099,0.605-0.522,0.677-1.174c0.11-0.943,0.11-2.699,0.11-4.746v-3.934
				c0-3.38,0-4.004-0.029-4.714c-0.051-0.759-0.263-0.991-0.992-1.206c-0.184-0.056-0.582-0.081-0.922-0.081
				c-0.232,0-0.391-0.072-0.391-0.229c0-0.161,0.181-0.213,0.5-0.213c1.231,0,2.748,0.052,3.379,0.052
				c0.551,0,2.146-0.052,3.064-0.052c0.317,0,0.473,0.052,0.473,0.213c0,0.156-0.132,0.229-0.419,0.229
				c-0.183,0-0.394,0.025-0.654,0.081c-0.63,0.105-0.811,0.421-0.866,1.206c-0.054,0.71-0.054,1.52-0.054,4.9v0.471
				c0,0.13,0.08,0.163,0.16,0.163H88.154z"/>
			<path fill="#282560" d="M101.347,147.039c-0.131,0-0.156,0.025-0.206,0.162l-1.233,2.986c-0.235,0.547-0.346,1.095-0.346,1.357
				c0,0.394,0.218,0.631,0.921,0.631h0.341c0.29,0,0.343,0.107,0.343,0.234c0,0.184-0.13,0.236-0.368,0.236
				c-0.763,0-1.837-0.075-2.567-0.075c-0.234,0-1.467,0.075-2.673,0.075c-0.291,0-0.42-0.053-0.42-0.236
				c0-0.127,0.077-0.234,0.262-0.234c0.211,0,0.469-0.025,0.682-0.025c1.045-0.153,1.442-0.841,1.914-1.963l6.023-14.021
				c0.266-0.634,0.446-0.893,0.681-0.893c0.341,0,0.449,0.206,0.682,0.711c0.551,1.227,4.407,10.347,5.872,13.728
				c0.89,2.017,1.548,2.305,1.969,2.381c0.337,0.057,0.599,0.082,0.859,0.082c0.209,0,0.32,0.08,0.32,0.234
				c0,0.184-0.136,0.236-1,0.236c-0.812,0-2.488,0-4.431-0.053c-0.415-0.022-0.682-0.022-0.682-0.184
				c0-0.127,0.056-0.207,0.289-0.234c0.161-0.025,0.318-0.237,0.211-0.499l-1.783-4.476c-0.052-0.137-0.131-0.162-0.233-0.162
				H101.347z M106.274,145.81c0.106,0,0.131-0.059,0.106-0.133l-2.177-5.659c-0.025-0.081-0.055-0.214-0.105-0.214
				c-0.08,0-0.101,0.133-0.13,0.214l-2.23,5.636c-0.048,0.098,0,0.156,0.08,0.156H106.274z"/>
			<path fill="#282560" d="M117.919,142.24c0-3.38,0-4.005-0.025-4.715c-0.057-0.759-0.264-0.99-0.994-1.205
				c-0.185-0.057-0.583-0.08-0.921-0.08c-0.238,0-0.396-0.073-0.396-0.229c0-0.161,0.186-0.213,0.528-0.213
				c1.207,0,2.673,0.052,3.145,0.052c0.784,0,2.884-0.052,3.589-0.052c1.464,0,3.146,0.129,4.375,0.942
				c0.657,0.443,1.629,1.57,1.629,3.063c0,1.652-0.944,3.121-3.202,4.935c2.048,2.507,3.673,4.529,5.056,5.921
				c1.288,1.279,2.103,1.387,2.465,1.464c0.239,0.053,0.371,0.053,0.551,0.053c0.185,0,0.291,0.135,0.291,0.234
				c0,0.183-0.157,0.235-0.443,0.235h-2.205c-1.281,0-1.917-0.127-2.513-0.442c-0.998-0.498-1.863-1.544-3.147-3.277
				c-0.919-1.203-1.885-2.695-2.174-3.037c-0.131-0.138-0.261-0.157-0.422-0.157l-2.068-0.055c-0.106,0-0.186,0.055-0.186,0.184
				v0.313c0,2.07,0.029,3.802,0.131,4.746c0.08,0.653,0.187,1.077,0.893,1.174c0.34,0.057,0.839,0.082,1.129,0.082
				c0.183,0,0.285,0.135,0.285,0.234c0,0.16-0.184,0.235-0.47,0.235c-1.337,0-3.25-0.075-3.584-0.075
				c-0.45,0-1.917,0.075-2.833,0.075c-0.291,0-0.45-0.075-0.45-0.235c0-0.1,0.08-0.234,0.367-0.234c0.339,0,0.604-0.025,0.815-0.082
				c0.471-0.097,0.608-0.521,0.677-1.174c0.109-0.944,0.109-2.7,0.109-4.746V142.24z M120.851,143.975
				c0,0.237,0.056,0.31,0.211,0.394c0.5,0.158,1.179,0.207,1.756,0.207c0.916,0,1.235-0.077,1.624-0.363
				c0.707-0.499,1.493-1.469,1.493-3.303c0-3.146-2.146-3.959-3.511-3.959c-0.576,0-1.126,0.024-1.362,0.078
				c-0.156,0.056-0.211,0.129-0.211,0.315V143.975z"/>
			<path fill="#282560" d="M137.225,142.24c0-3.38,0-4.005-0.023-4.715c-0.055-0.758-0.269-0.99-1-1.205
				c-0.183-0.057-0.573-0.079-0.915-0.079c-0.237,0-0.394-0.074-0.394-0.23c0-0.161,0.184-0.213,0.525-0.213
				c1.203,0,2.674,0.052,3.327,0.052c0.71,0,2.362-0.052,3.748-0.052c2.885,0,6.763,0,9.278,2.547
				c1.153,1.15,2.171,3.007,2.171,5.652c0,2.808-1.206,4.929-2.515,6.214c-1.044,1.047-3.483,2.615-7.732,2.615
				c-0.835,0-1.833-0.07-2.749-0.129c-0.92-0.077-1.754-0.126-2.333-0.126c-0.261,0-0.762,0.022-1.312,0.022
				c-0.546,0.026-1.123,0.053-1.598,0.053c-0.286,0-0.443-0.075-0.443-0.236c0-0.1,0.079-0.234,0.368-0.234
				c0.34,0,0.601-0.025,0.811-0.082c0.472-0.097,0.602-0.521,0.683-1.174c0.103-0.944,0.103-2.699,0.103-4.746V142.24z
				 M140.316,144.707c0,2.357,0.028,4.058,0.053,4.509c0.026,0.55,0.079,1.335,0.261,1.57c0.29,0.419,1.209,0.891,3.015,0.891
				c2.097,0,3.644-0.367,5.03-1.521c1.494-1.23,1.965-3.224,1.965-5.529c0-2.831-1.125-4.66-2.152-5.553
				c-2.118-1.891-4.634-2.124-6.446-2.124c-0.468,0-1.229,0.052-1.413,0.158c-0.21,0.075-0.286,0.184-0.286,0.444
				c-0.028,0.758-0.028,2.592-0.028,4.349V144.707z"/>
			<path fill="#282560" d="M161.866,137.157l-3.428,0.079c-1.34,0.03-1.886,0.188-2.229,0.679c-0.238,0.321-0.344,0.606-0.397,0.766
				c-0.05,0.18-0.106,0.288-0.258,0.288c-0.161,0-0.212-0.132-0.212-0.365c0-0.367,0.445-2.52,0.501-2.7
				c0.051-0.289,0.128-0.423,0.262-0.423c0.181,0,0.419,0.186,0.994,0.268c0.681,0.076,1.549,0.102,2.303,0.102h9.353
				c0.74,0,1.237-0.052,1.577-0.102c0.367-0.056,0.551-0.104,0.629-0.104c0.155,0,0.185,0.125,0.185,0.47
				c0,0.471-0.056,2.122-0.056,2.699c-0.025,0.232-0.075,0.366-0.207,0.366c-0.185,0-0.236-0.104-0.265-0.447l-0.029-0.233
				c-0.051-0.584-0.652-1.263-2.716-1.286l-2.912-0.056v9.017c0,2.047,0.027,3.803,0.125,4.771c0.086,0.627,0.214,1.052,0.899,1.149
				c0.312,0.055,0.834,0.082,1.178,0.082c0.264,0,0.367,0.131,0.367,0.234c0,0.158-0.188,0.236-0.446,0.236
				c-1.523,0-3.068-0.078-3.724-0.078c-0.519,0-2.095,0.078-3.011,0.078c-0.286,0-0.445-0.078-0.445-0.236
				c0-0.104,0.08-0.234,0.367-0.234c0.34,0,0.626-0.027,0.812-0.082c0.474-0.098,0.6-0.522,0.679-1.174
				c0.107-0.943,0.107-2.699,0.107-4.746V137.157z"/>
			<rect x="185.468" y="132.917" fill="#282560" width="1.415" height="26.203"/>
			<path fill="#282560" d="M219.124,141.171c0.079,0,0.155-0.057,0.155-0.186v-0.549c0-3.985,0-4.72-0.048-5.556
				c-0.057-0.892-0.264-1.313-1.129-1.496c-0.212-0.053-0.661-0.078-1.024-0.078c-0.288,0-0.443-0.055-0.443-0.233
				c0-0.185,0.183-0.232,0.548-0.232c1.418,0,3.071,0.076,3.773,0.076c0.632,0,2.284-0.076,3.3-0.076c0.369,0,0.55,0.048,0.55,0.232
				c0,0.179-0.15,0.233-0.47,0.233c-0.203,0-0.443,0.025-0.758,0.078c-0.706,0.134-0.914,0.579-0.969,1.496
				c-0.056,0.836-0.056,1.57-0.056,5.556v4.611c0,2.41,0,4.484,0.136,5.611c0.076,0.734,0.232,1.311,1.021,1.411
				c0.367,0.053,0.944,0.105,1.336,0.105c0.281,0,0.418,0.08,0.418,0.211c0,0.185-0.205,0.26-0.521,0.26
				c-1.703,0-3.355-0.075-4.087-0.075c-0.603,0-2.255,0.075-3.279,0.075c-0.369,0-0.551-0.075-0.551-0.26
				c0-0.131,0.106-0.211,0.415-0.211c0.405,0,0.713-0.053,0.95-0.105c0.521-0.101,0.654-0.677,0.759-1.445
				c0.128-1.093,0.128-3.167,0.128-5.577v-2.305c0-0.109-0.077-0.163-0.155-0.163h-10.006c-0.079,0-0.163,0.025-0.163,0.163v2.305
				c0,2.41,0,4.484,0.134,5.611c0.079,0.734,0.235,1.311,1.025,1.411c0.366,0.053,0.939,0.105,1.338,0.105
				c0.279,0,0.414,0.08,0.414,0.211c0,0.185-0.211,0.26-0.519,0.26c-1.708,0-3.36-0.075-4.093-0.075
				c-0.602,0-2.251,0.075-3.301,0.075c-0.343,0-0.522-0.075-0.522-0.26c0-0.131,0.105-0.211,0.414-0.211
				c0.394,0,0.71-0.053,0.946-0.105c0.52-0.101,0.655-0.677,0.76-1.445c0.127-1.093,0.127-3.167,0.127-5.577v-4.611
				c0-3.985,0-4.72-0.044-5.556c-0.054-0.892-0.265-1.313-1.134-1.496c-0.208-0.053-0.655-0.078-1.018-0.078
				c-0.288,0-0.448-0.055-0.448-0.233c0-0.185,0.185-0.232,0.55-0.232c1.418,0,3.068,0.076,3.775,0.076
				c0.627,0,2.279-0.076,3.301-0.076c0.37,0,0.55,0.048,0.55,0.232c0,0.179-0.158,0.233-0.475,0.233
				c-0.205,0-0.446,0.025-0.761,0.078c-0.706,0.134-0.917,0.579-0.963,1.496c-0.058,0.836-0.058,1.57-0.058,5.556v0.549
				c0,0.129,0.084,0.186,0.163,0.186H219.124z"/>
			<path fill="#282560" d="M233.047,147.039c-0.13,0-0.16,0.025-0.21,0.162l-1.231,2.986c-0.241,0.547-0.343,1.095-0.343,1.357
				c0,0.394,0.209,0.631,0.917,0.631h0.345c0.289,0,0.335,0.107,0.335,0.234c0,0.184-0.128,0.236-0.361,0.236
				c-0.764,0-1.835-0.075-2.573-0.075c-0.232,0-1.464,0.075-2.669,0.075c-0.29,0-0.417-0.053-0.417-0.236
				c0-0.127,0.072-0.234,0.257-0.234c0.209,0,0.471-0.025,0.686-0.025c1.048-0.153,1.44-0.841,1.911-1.963l6.03-14.021
				c0.258-0.634,0.438-0.893,0.679-0.893c0.342,0,0.443,0.206,0.678,0.711c0.555,1.227,4.408,10.347,5.875,13.728
				c0.891,2.017,1.541,2.305,1.968,2.381c0.334,0.057,0.602,0.082,0.855,0.082c0.217,0,0.319,0.08,0.319,0.234
				c0,0.184-0.128,0.236-0.996,0.236c-0.813,0-2.485,0-4.434-0.053c-0.412-0.022-0.673-0.022-0.673-0.184
				c0-0.127,0.048-0.207,0.288-0.234c0.157-0.025,0.312-0.237,0.206-0.499l-1.782-4.476c-0.052-0.137-0.132-0.162-0.235-0.162
				H233.047z M237.973,145.81c0.104,0,0.133-0.059,0.104-0.133l-2.175-5.659c-0.025-0.081-0.055-0.214-0.102-0.214
				c-0.077,0-0.108,0.133-0.135,0.214l-2.221,5.636c-0.056,0.098,0,0.156,0.074,0.156H237.973z"/>
			<path fill="#282560" d="M249.619,142.24c0-3.38,0-4.005-0.031-4.715c-0.052-0.759-0.268-0.99-0.994-1.205
				c-0.18-0.057-0.578-0.08-0.921-0.08c-0.237,0-0.391-0.073-0.391-0.229c0-0.161,0.185-0.213,0.522-0.213
				c1.211,0,2.676,0.052,3.145,0.052c0.785,0,2.883-0.052,3.59-0.052c1.473,0,3.142,0.129,4.38,0.942
				c0.652,0.443,1.626,1.57,1.626,3.063c0,1.652-0.944,3.121-3.206,4.935c2.051,2.507,3.672,4.529,5.065,5.921
				c1.28,1.279,2.094,1.387,2.457,1.464c0.243,0.053,0.368,0.053,0.554,0.053c0.184,0,0.287,0.135,0.287,0.234
				c0,0.183-0.158,0.235-0.445,0.235h-2.199c-1.282,0-1.911-0.127-2.513-0.442c-1.002-0.498-1.862-1.544-3.149-3.277
				c-0.915-1.203-1.884-2.695-2.176-3.037c-0.128-0.138-0.261-0.157-0.419-0.157l-2.067-0.055c-0.105,0-0.186,0.055-0.186,0.184
				v0.313c0,2.07,0.028,3.802,0.129,4.746c0.085,0.653,0.188,1.077,0.895,1.174c0.338,0.057,0.834,0.082,1.127,0.082
				c0.183,0,0.287,0.135,0.287,0.234c0,0.16-0.185,0.235-0.472,0.235c-1.333,0-3.251-0.075-3.587-0.075
				c-0.446,0-1.911,0.075-2.834,0.075c-0.288,0-0.445-0.075-0.445-0.235c0-0.1,0.08-0.234,0.368-0.234
				c0.342,0,0.605-0.025,0.811-0.082c0.471-0.097,0.604-0.521,0.687-1.174c0.106-0.944,0.106-2.7,0.106-4.746V142.24z
				 M252.548,143.975c0,0.237,0.057,0.31,0.214,0.394c0.495,0.158,1.178,0.207,1.752,0.207c0.917,0,1.232-0.077,1.627-0.363
				c0.704-0.499,1.493-1.469,1.493-3.303c0-3.146-2.148-3.959-3.514-3.959c-0.575,0-1.126,0.024-1.358,0.078
				c-0.157,0.056-0.214,0.129-0.214,0.315V143.975z"/>
			<path fill="#282560" d="M268.923,142.24c0-3.38,0-4.005-0.024-4.713c-0.055-0.761-0.267-0.992-0.998-1.207
				c-0.181-0.057-0.574-0.08-0.917-0.08c-0.235,0-0.396-0.075-0.396-0.229c0-0.161,0.186-0.214,0.526-0.214
				c1.207,0,2.678,0.053,3.332,0.053c0.938,0,2.776-0.053,3.826-0.053c2.88,0,3.923,0.943,4.294,1.26
				c0.499,0.471,1.153,1.466,1.153,2.676c0,3.143-2.513,5.396-5.791,5.396c-0.104,0-0.577,0-0.685-0.023
				c-0.13,0-0.283-0.084-0.283-0.24c0-0.183,0.262-0.289,0.755-0.289c1.283,0,3.093-1.334,3.093-3.616
				c0-0.735-0.077-2.196-1.361-3.301c-0.835-0.733-1.778-0.837-2.303-0.837c-0.347,0-0.791,0.021-0.996,0.104
				c-0.132,0.05-0.185,0.184-0.185,0.419v8.829c0,2.047,0,3.803,0.104,4.771c0.08,0.628,0.211,1.053,0.893,1.149
				c0.338,0.056,0.835,0.082,1.176,0.082c0.264,0,0.369,0.132,0.369,0.234c0,0.16-0.188,0.235-0.42,0.235
				c-1.545,0-3.169-0.075-3.773-0.075c-0.521,0-1.991,0.075-2.908,0.075c-0.29,0-0.445-0.075-0.445-0.235
				c0-0.103,0.081-0.234,0.368-0.234c0.336,0,0.601-0.026,0.808-0.082c0.475-0.097,0.606-0.521,0.685-1.174
				c0.104-0.944,0.104-2.7,0.104-4.747V142.24z"/>
			<path fill="#282560" d="M283.773,142.24c0-3.38,0-4.005-0.029-4.713c-0.045-0.761-0.261-0.992-0.99-1.207
				c-0.18-0.057-0.577-0.08-0.916-0.08c-0.241,0-0.4-0.075-0.4-0.229c0-0.161,0.188-0.214,0.529-0.214
				c1.204,0,2.674,0.053,3.327,0.053c0.737,0,5.846,0.025,6.292,0c0.419-0.025,0.786-0.102,0.966-0.134
				c0.129-0.024,0.266-0.101,0.372-0.101c0.125,0,0.154,0.101,0.154,0.209c0,0.16-0.128,0.416-0.186,1.442
				c-0.024,0.235-0.075,1.204-0.133,1.466c-0.027,0.105-0.079,0.368-0.26,0.368c-0.159,0-0.185-0.104-0.185-0.287
				c0-0.16-0.025-0.55-0.156-0.813c-0.181-0.396-0.37-0.708-1.523-0.816c-0.388-0.051-3.137-0.1-3.609-0.1
				c-0.108,0-0.158,0.073-0.158,0.208v5.502c0,0.131,0.024,0.232,0.158,0.232c0.521,0,3.51,0,4.034-0.049
				c0.548-0.053,0.888-0.103,1.099-0.343c0.182-0.157,0.259-0.285,0.369-0.285c0.103,0,0.179,0.104,0.179,0.23
				c0,0.135-0.047,0.504-0.179,1.632c-0.058,0.444-0.11,1.338-0.11,1.49c0,0.187-0.026,0.497-0.232,0.497
				c-0.156,0-0.207-0.078-0.207-0.18c-0.03-0.243-0.03-0.525-0.08-0.816c-0.13-0.443-0.423-0.788-1.283-0.865
				c-0.42-0.054-3.039-0.102-3.619-0.102c-0.104,0-0.128,0.102-0.128,0.233v1.785c0,0.757-0.029,2.646,0,3.3
				c0.05,1.525,0.756,1.857,3.115,1.857c0.609,0,1.574-0.019,2.176-0.281c0.573-0.268,0.835-0.74,0.991-1.655
				c0.062-0.234,0.111-0.342,0.268-0.342c0.186,0,0.206,0.287,0.206,0.524c0,0.501-0.177,2.019-0.31,2.463
				c-0.164,0.576-0.364,0.576-1.232,0.576c-1.735,0-3.118-0.023-4.245-0.077c-1.13-0.027-1.989-0.05-2.673-0.05
				c-0.263,0-0.765,0.022-1.313,0.022c-0.551,0.027-1.124,0.053-1.597,0.053c-0.287,0-0.447-0.075-0.447-0.235
				c0-0.103,0.079-0.234,0.37-0.234c0.34,0,0.601-0.026,0.81-0.082c0.472-0.097,0.605-0.521,0.684-1.174
				c0.104-0.944,0.104-2.7,0.104-4.747V142.24z"/>
			<path fill="#282560" d="M298.398,142.24c0-3.38,0-4.005-0.023-4.715c-0.049-0.759-0.264-0.99-0.99-1.205
				c-0.188-0.057-0.578-0.08-0.921-0.08c-0.237,0-0.397-0.073-0.397-0.229c0-0.161,0.187-0.213,0.528-0.213
				c1.202,0,2.675,0.052,3.144,0.052c0.784,0,2.879-0.052,3.592-0.052c1.465,0,3.144,0.129,4.373,0.942
				c0.657,0.443,1.628,1.57,1.628,3.063c0,1.652-0.945,3.121-3.197,4.935c2.04,2.507,3.666,4.529,5.057,5.921
				c1.284,1.279,2.093,1.387,2.462,1.464c0.238,0.053,0.364,0.053,0.545,0.053c0.188,0,0.292,0.135,0.292,0.234
				c0,0.183-0.156,0.235-0.445,0.235h-2.202c-1.277,0-1.909-0.127-2.511-0.442c-0.998-0.498-1.861-1.544-3.148-3.277
				c-0.916-1.203-1.881-2.695-2.173-3.037c-0.135-0.138-0.262-0.157-0.418-0.157l-2.075-0.055c-0.104,0-0.181,0.055-0.181,0.184
				v0.313c0,2.07,0.026,3.802,0.13,4.746c0.081,0.653,0.183,1.077,0.892,1.174c0.338,0.057,0.838,0.082,1.124,0.082
				c0.188,0,0.291,0.135,0.291,0.234c0,0.16-0.181,0.235-0.472,0.235c-1.342,0-3.249-0.075-3.589-0.075
				c-0.442,0-1.915,0.075-2.829,0.075c-0.288,0-0.449-0.075-0.449-0.235c0-0.1,0.08-0.234,0.373-0.234
				c0.338,0,0.601-0.025,0.812-0.082c0.47-0.097,0.601-0.521,0.679-1.174c0.102-0.944,0.102-2.7,0.102-4.746V142.24z
				 M301.336,143.975c0,0.237,0.052,0.31,0.211,0.394c0.499,0.158,1.18,0.207,1.754,0.207c0.919,0,1.234-0.077,1.63-0.363
				c0.704-0.499,1.49-1.469,1.49-3.303c0-3.146-2.15-3.959-3.515-3.959c-0.579,0-1.125,0.024-1.359,0.078
				c-0.159,0.056-0.211,0.129-0.211,0.315V143.975z"/>
			<rect x="326.453" y="132.917" fill="#282560" width="1.413" height="26.203"/>
			<path fill="#282560" d="M346.671,140.438c0-3.989,0-4.724-0.051-5.558c-0.048-0.892-0.266-1.313-1.13-1.495
				c-0.21-0.053-0.651-0.078-1.021-0.078c-0.289,0-0.447-0.056-0.447-0.233c0-0.186,0.189-0.233,0.575-0.233
				c1.396,0,3.043,0.076,3.778,0.076c0.814,0,2.463-0.076,4.033-0.076c3.276,0,7.657,0,10.511,2.983
				c1.315,1.36,2.537,3.537,2.537,6.654c0,3.298-1.386,5.817-2.85,7.314c-1.212,1.232-3.93,3.089-8.786,3.089
				c-0.936,0-2.016-0.082-3.006-0.153c-0.995-0.082-1.913-0.16-2.574-0.16c-0.286,0-0.864,0-1.487,0.025
				c-0.609,0-1.292,0.053-1.812,0.053c-0.345,0-0.522-0.078-0.522-0.26c0-0.134,0.105-0.211,0.42-0.211
				c0.391,0,0.704-0.053,0.943-0.105c0.525-0.1,0.651-0.677,0.759-1.443c0.13-1.095,0.13-3.169,0.13-5.578V140.438z
				 M349.943,143.318c0,2.773,0.029,4.8,0.054,5.291c0.026,0.658,0.082,1.706,0.292,1.994c0.334,0.501,1.36,1.048,3.433,1.048
				c2.668,0,4.452-0.52,6.026-1.885c1.676-1.442,2.198-3.826,2.198-6.526c0-3.328-1.392-5.478-2.513-6.554
				c-2.408-2.301-5.401-2.617-7.441-2.617c-0.526,0-1.492,0.082-1.703,0.183c-0.238,0.104-0.316,0.236-0.316,0.524
				c-0.029,0.89-0.029,3.169-0.029,5.242V143.318z"/>
			<path fill="#282560" d="M370.941,147.039c-0.123,0-0.156,0.025-0.21,0.162l-1.227,2.986c-0.237,0.547-0.341,1.095-0.341,1.357
				c0,0.394,0.204,0.631,0.913,0.631h0.346c0.29,0,0.338,0.107,0.338,0.234c0,0.184-0.131,0.236-0.364,0.236
				c-0.76,0-1.834-0.075-2.568-0.075c-0.235,0-1.468,0.075-2.672,0.075c-0.29,0-0.421-0.053-0.421-0.236
				c0-0.127,0.073-0.234,0.261-0.234c0.212,0,0.473-0.025,0.684-0.025c1.044-0.153,1.439-0.841,1.913-1.963l6.022-14.021
				c0.265-0.634,0.45-0.893,0.683-0.893c0.344,0,0.45,0.206,0.688,0.711c0.545,1.227,4.396,10.347,5.865,13.728
				c0.893,2.017,1.544,2.305,1.971,2.381c0.334,0.057,0.598,0.082,0.865,0.082c0.211,0,0.309,0.08,0.309,0.234
				c0,0.184-0.13,0.236-0.991,0.236c-0.813,0-2.493,0-4.437-0.053c-0.413-0.022-0.674-0.022-0.674-0.184
				c0-0.127,0.05-0.207,0.282-0.234c0.162-0.025,0.318-0.237,0.211-0.499l-1.785-4.476c-0.049-0.137-0.125-0.162-0.233-0.162
				H370.941z M375.873,145.81c0.104,0,0.127-0.059,0.104-0.133l-2.174-5.659c-0.028-0.081-0.058-0.214-0.108-0.214
				c-0.08,0-0.102,0.133-0.134,0.214l-2.229,5.636c-0.044,0.098,0,0.156,0.089,0.156H375.873z"/>
			<path fill="#282560" d="M382.543,137.972c-0.523-1.231-0.863-1.437-1.707-1.651c-0.337-0.08-0.705-0.08-0.889-0.08
				c-0.213,0-0.268-0.101-0.268-0.229c0-0.187,0.243-0.213,0.589-0.213c1.225,0,2.535,0.052,3.349,0.052
				c0.573,0,1.781-0.052,2.931-0.052c0.293,0,0.555,0.052,0.555,0.213c0,0.156-0.157,0.229-0.367,0.229
				c-0.363,0-0.709,0.023-0.888,0.16c-0.164,0.105-0.237,0.239-0.237,0.441c0,0.291,0.202,0.894,0.521,1.681l3.878,9.984h0.083
				c0.992-2.308,3.951-9.486,4.507-10.954c0.102-0.286,0.208-0.628,0.208-0.812c0-0.234-0.106-0.316-0.318-0.392
				c-0.257-0.085-0.624-0.108-0.911-0.108c-0.212,0-0.4-0.073-0.4-0.229c0-0.161,0.218-0.213,0.657-0.213
				c1.154,0,2.181,0.052,2.466,0.052c0.395,0,1.464-0.052,2.173-0.052c0.287,0,0.476,0.052,0.476,0.213
				c0,0.156-0.138,0.229-0.369,0.229c-0.233,0-0.734-0.022-1.129,0.266c-0.284,0.21-0.599,0.551-1.203,1.965
				c-0.916,2.096-1.52,3.301-2.778,6.027c-1.469,3.249-2.547,5.689-3.062,6.812c-0.585,1.283-0.79,1.626-1.106,1.626
				c-0.312,0-0.494-0.29-0.941-1.338L382.543,137.972z"/>
			<path fill="#282560" d="M402.464,142.24c0-3.38,0-4.005-0.028-4.713c-0.047-0.761-0.288-1.021-0.784-1.179
				c-0.262-0.085-0.55-0.108-0.841-0.108c-0.238,0-0.366-0.046-0.366-0.256c0-0.135,0.187-0.188,0.555-0.188
				c0.857,0,2.434,0.053,3.088,0.053c0.579,0,2.068-0.053,2.965-0.053c0.284,0,0.472,0.053,0.472,0.188
				c0,0.21-0.131,0.256-0.364,0.256c-0.241,0-0.423,0.023-0.68,0.08c-0.632,0.104-0.812,0.42-0.871,1.207
				c-0.055,0.708-0.055,1.333-0.055,4.713v3.933c0,2.151,0,3.935,0.113,4.877c0.072,0.601,0.23,0.947,0.914,1.044
				c0.311,0.056,0.833,0.082,1.175,0.082c0.269,0,0.369,0.132,0.369,0.234c0,0.16-0.186,0.235-0.442,0.235
				c-1.527,0-3.093-0.075-3.724-0.075c-0.526,0-2.103,0.075-3.017,0.075c-0.289,0-0.443-0.075-0.443-0.235
				c0-0.103,0.073-0.234,0.369-0.234c0.334,0,0.601-0.026,0.811-0.082c0.469-0.097,0.604-0.417,0.682-1.069
				c0.104-0.917,0.104-2.7,0.104-4.852V142.24z"/>
			<path fill="#282560" d="M411.459,152.361c-0.369-0.159-0.447-0.268-0.447-0.763c0-1.208,0.099-2.59,0.131-2.957
				c0-0.346,0.104-0.578,0.286-0.578c0.212,0,0.234,0.207,0.234,0.366c0,0.29,0.081,0.757,0.213,1.151
				c0.497,1.649,2.229,2.201,3.67,2.201c1.99,0,3.197-1.255,3.197-2.83c0-0.968-0.236-1.938-2.284-3.143l-1.333-0.79
				c-2.725-1.594-3.618-3.09-3.618-5.053c0-2.729,2.621-4.485,5.822-4.485c1.491,0,2.676,0.212,3.276,0.368
				c0.202,0.054,0.312,0.135,0.312,0.29c0,0.287-0.078,0.919-0.078,2.674c0,0.467-0.108,0.702-0.289,0.702
				c-0.158,0-0.241-0.126-0.241-0.391c0-0.208-0.099-0.89-0.595-1.467c-0.342-0.421-1.08-1.047-2.573-1.047
				c-1.647,0-3.144,0.867-3.144,2.383c0,0.997,0.368,1.783,2.438,2.936l0.943,0.524c3.038,1.677,3.981,3.376,3.981,5.399
				c0,1.645-0.63,2.98-2.303,4.164c-1.106,0.782-2.622,0.918-3.853,0.918C413.864,152.936,412.451,152.8,411.459,152.361"/>
		</g>
	</g>
</g>
</svg>
