<?xml version="1.0" encoding="utf-8"?>
<!-- Generator: Adobe Illustrator 16.0.4, SVG Export Plug-In . SVG Version: 6.00 Build 0)  -->
<!DOCTYPE svg PUBLIC "-//W3C//DTD SVG 1.1//EN" "http://www.w3.org/Graphics/SVG/1.1/DTD/svg11.dtd">
<svg version="1.1" id="Layer_1" xmlns="http://www.w3.org/2000/svg" xmlns:xlink="http://www.w3.org/1999/xlink" x="0px" y="0px"
	 width="300px" height="299.567px" viewBox="0 0 300 299.567" enable-background="new 0 0 300 299.567" xml:space="preserve">
<circle fill-rule="evenodd" clip-rule="evenodd" fill="none" stroke="#252160" stroke-width="9.8645" stroke-miterlimit="10" cx="149.882" cy="149.135" r="139.52"/>
<rect x="-662" y="-47" fill="#252160" width="571" height="284"/>
<g>
	<path fill-rule="evenodd" clip-rule="evenodd" fill="#252160" d="M247.768,109.703c-0.133,26.123-6.5,34.639-31.623,41.469
		c-15.592,4.239-31.268,8.195-46.967,12.025c-9.893,2.411-26.604-13.308-24.233-23.175c4.545-18.911,9.215-37.827,14.887-56.42
		c5.338-17.496,14.908-23.752,33.023-23.824c6.275-0.025,12.551,0.02,18.828,0.006c4.934-0.01,8.871,2.213,12.365,5.442
		c1.301,1.204,2.162,2.768,1.025,4.334c-1.135,1.566-2.855,1.318-4.371,0.275c-10.877-7.469-23.111-3.783-34.693-3.605
		c-9.851,0.153-16.051,6.942-19.263,16.114c-6.548,18.704-10.869,38.027-15.637,57.215c-1.849,7.446,10.464,19.11,18.157,17.207
		c17.602-4.349,35.24-8.666,52.562-13.986c15.076-4.632,19.955-11.974,19.773-27.974c-0.107-9.333,2.936-19.256-3.814-27.763
		c-1.074-1.353-1.473-3.223,0.102-4.421c2.125-1.612,3.736,0.046,4.984,1.559c3.012,3.647,4.971,7.749,4.896,12.641
		C247.709,101.117,247.76,105.41,247.768,109.703z"/>
	<path fill-rule="evenodd" clip-rule="evenodd" fill="#252160" d="M135.345,252.424c-18.213-0.187-32.131-16.871-29.751-35.677
		c1.585-12.534,6.958-23.344,15.281-32.699c4.83-5.431,9.58-11.024,15.034-15.779c5.482-4.775,6.355-8.549,0.173-13.212
		c-1.888-1.426-4.745-3.752-1.475-6.382c2.545-2.045,4.162,0.756,5.681,2.248c5.896,5.79,11.723,11.648,17.467,17.589
		c1.496,1.549,3.932,3.407,1.311,5.749c-1.867,1.671-3.996,0.411-5.098-1.232c-6.087-9.081-10.615-4.481-15.831,1.17
		c-6.951,7.528-14.236,14.715-19.721,23.473c-5.483,8.755-7.677,18.19-6.146,28.409c1.814,12.098,11.071,20.168,23.128,20.329
		c12.496,0.165,22.435-8.581,24.446-21.517c1.686-10.828-6.117-22.63-16.963-26.102c-3.361-1.075-10.443,0.104-8.947-4.661
		c1.764-5.607,8.198-1.896,12.184-0.562c13.273,4.447,21.986,19.485,19.736,33.051C163.336,241.782,150.571,252.581,135.345,252.424
		z"/>
	<path fill-rule="evenodd" clip-rule="evenodd" fill="#252160" d="M51.128,153.133c0.163-11.745,6.285-19.49,14.855-21.475
		c8.496-1.969,17.661,2.41,21.603,10.321c3.983,7.996,1.901,17.667-5.008,23.27c-9.579,7.767-9.348,13.645,0.744,21.477
		c3.799,2.95,8.08,4.284,12.809,4.707c1.981,0.178,4.222,1.097,3.842,3.554c-0.372,2.385-2.69,2.402-4.733,2.464
		c-9.935,0.301-22.037-8.639-25.894-20.027c-1.592-4.698-3.712-7.873-8.34-10.047C54.084,164.123,51.132,157.985,51.128,153.133z
		 M69.958,137.271c-7.328,0.17-12.914,5.965-12.855,13.336c0.063,7.883,6.073,13.501,13.989,13.077
		c7.504-0.399,12.46-5.981,12.195-13.73C83.025,142.363,77.49,137.093,69.958,137.271z"/>
</g>
</svg>
