<?xml version="1.0" encoding="utf-8"?>
<!-- Generator: Adobe Illustrator 16.0.4, SVG Export Plug-In . SVG Version: 6.00 Build 0)  -->
<!DOCTYPE svg PUBLIC "-//W3C//DTD SVG 1.1//EN" "http://www.w3.org/Graphics/SVG/1.1/DTD/svg11.dtd">
<svg version="1.1" id="Layer_1" xmlns="http://www.w3.org/2000/svg" xmlns:xlink="http://www.w3.org/1999/xlink" x="0px" y="0px"
	 width="35px" height="35px" viewBox="0 0 35 35" enable-background="new 0 0 35 35" xml:space="preserve">
<g>
	<path fill-rule="evenodd" clip-rule="evenodd" fill="#252160" d="M22.506,11.898c-3.41,0-6.78,0-10.339,0
		c0,0.503,0.021,1-0.004,1.494c-0.088,1.805-1.203,2.91-2.985,2.981c-1.494,0.061-2.987,0.144-4.482,0.174
		c-1.786,0.036-2.962-1.029-3.167-2.808c-0.469-4.09,0.856-6.6,4.573-8.422c4.648-2.28,9.617-2.507,14.655-2.103
		c2.685,0.216,5.311,0.771,7.713,2.028c1.102,0.576,2.169,1.302,3.069,2.155c2.159,2.048,1.944,4.696,1.44,7.28
		c-0.238,1.214-1.413,1.895-2.698,1.872c-1.691-0.029-3.384-0.093-5.073-0.202c-1.331-0.084-2.346-1.105-2.562-2.52
		C22.554,13.213,22.553,12.585,22.506,11.898z M28.021,14.122c0.003-0.026,0.006-0.052,0.009-0.078
		c0.668,0.031,1.344,0.13,2.001,0.062c0.283-0.031,0.706-0.373,0.763-0.638c0.547-2.576-0.177-4.227-2.466-5.581
		c-0.807-0.479-1.674-0.89-2.562-1.187c-4.472-1.491-9.06-1.606-13.646-0.771C10.287,6.262,8.455,6.894,6.78,7.71
		c-2.516,1.228-3.241,2.871-2.816,5.615c0.047,0.306,0.544,0.736,0.867,0.769c0.814,0.083,1.648-0.036,2.474-0.062
		c2.372-0.072,2.372-0.068,2.463-2.484c0.005-0.158,0.005-0.315,0.028-0.472c0.148-1.035,0.68-1.636,1.793-1.633
		c3.857,0.008,7.715-0.01,11.573,0.012c1.188,0.006,1.732,0.552,1.84,1.702c0.083,0.884-0.163,2.134,0.319,2.559
		C25.896,14.221,27.094,14.018,28.021,14.122z"/>
	<path fill-rule="evenodd" clip-rule="evenodd" fill="#252160" d="M5.797,17.773c0.85,0,1.581,0,2.42,0
		c-0.322,2.675-0.636,5.277-0.95,7.88c-0.047,0.391-0.107,0.779-0.143,1.172c-0.157,1.753,0.62,2.669,2.414,2.679
		c5.235,0.029,10.472,0.034,15.707-0.002c1.827-0.011,2.604-1.021,2.374-2.832c-0.373-2.923-0.727-5.85-1.085-8.743
		c0.126-0.083,0.188-0.156,0.256-0.163c2.104-0.206,2.107-0.206,2.364,1.843c0.303,2.42,0.644,4.837,0.893,7.263
		c0.281,2.759-1.602,4.986-4.38,5.022c-5.511,0.073-11.023,0.07-16.534,0.003c-2.891-0.034-4.755-2.332-4.412-5.21
		C5.07,23.757,5.428,20.83,5.797,17.773z"/>
	<path fill-rule="evenodd" clip-rule="evenodd" fill="#252160" d="M17.325,23.835c-1.153,0.254-1.204-0.427-1.256-1.336
		c-0.066-1.14,0.484-1.215,1.396-1.26c1.178-0.059,1.191,0.566,1.221,1.441C18.72,23.723,18.257,24.004,17.325,23.835z"/>
	<path fill-rule="evenodd" clip-rule="evenodd" fill="#252160" d="M22.269,22.689c0.254,1.253-0.58,1.134-1.408,1.191
		c-1.12,0.074-1.11-0.561-1.166-1.387c-0.079-1.147,0.511-1.206,1.416-1.254C22.297,21.179,22.397,21.797,22.269,22.689z"/>
	<path fill-rule="evenodd" clip-rule="evenodd" fill="#252160" d="M21.039,27.458c-1.065,0.227-1.354-0.266-1.352-1.287
		c0.003-0.976,0.307-1.281,1.293-1.298c1.05-0.016,1.364,0.314,1.339,1.352C22.297,27.17,22.087,27.68,21.039,27.458z"/>
	<path fill-rule="evenodd" clip-rule="evenodd" fill="#252160" d="M17.43,17.639c1.039-0.203,1.228,0.329,1.26,1.258
		c0.039,1.083-0.389,1.286-1.375,1.315c-1.159,0.034-1.206-0.521-1.246-1.426C16.019,17.686,16.543,17.507,17.43,17.639z"/>
	<path fill-rule="evenodd" clip-rule="evenodd" fill="#252160" d="M16.124,26.181c-0.264-1.13,0.358-1.279,1.313-1.306
		c1.03-0.027,1.221,0.407,1.255,1.328c0.04,1.091-0.399,1.307-1.385,1.313C16.284,27.523,15.931,27.157,16.124,26.181z"/>
	<path fill-rule="evenodd" clip-rule="evenodd" fill="#252160" d="M13.68,20.151c-1.044,0.21-1.27-0.288-1.297-1.238
		c-0.03-1.079,0.4-1.309,1.385-1.325c1.017-0.016,1.252,0.363,1.263,1.305C15.042,19.928,14.725,20.388,13.68,20.151z"/>
	<path fill-rule="evenodd" clip-rule="evenodd" fill="#252160" d="M22.018,17.976c0.426,0.972,0.282,1.569-0.16,2.075
		c-0.271,0.311-1.561,0.215-1.903-0.154c-0.354-0.379-0.39-1.684-0.071-1.919C20.436,17.567,21.76,17.389,22.018,17.976z"/>
	<path fill-rule="evenodd" clip-rule="evenodd" fill="#252160" d="M13.738,21.301c1.15-0.276,1.27,0.378,1.287,1.306
		c0.016,0.952-0.269,1.294-1.271,1.285c-1.002-0.008-1.387-0.27-1.371-1.321C12.4,21.564,12.667,21.064,13.738,21.301z"/>
	<path fill-rule="evenodd" clip-rule="evenodd" fill="#252160" d="M14.976,26.255c0.223,1.091-0.371,1.213-1.272,1.259
		c-1.104,0.055-1.303-0.414-1.317-1.387c-0.016-1.032,0.409-1.232,1.335-1.255C14.799,24.848,15.167,25.258,14.976,26.255z"/>
</g>
</svg>
