<?xml version="1.0" encoding="utf-8"?>
<!-- Generator: Adobe Illustrator 16.0.4, SVG Export Plug-In . SVG Version: 6.00 Build 0)  -->
<!DOCTYPE svg PUBLIC "-//W3C//DTD SVG 1.1//EN" "http://www.w3.org/Graphics/SVG/1.1/DTD/svg11.dtd">
<svg version="1.1" id="Layer_1" xmlns="http://www.w3.org/2000/svg" xmlns:xlink="http://www.w3.org/1999/xlink" x="0px" y="0px"
	 width="35px" height="35px" viewBox="0 0 35 35" enable-background="new 0 0 35 35" xml:space="preserve">
<g>
	<path fill="#808080" d="M22.506,11.898c-3.41,0-6.78,0-10.339,0c0,0.503,0.021,1-0.004,1.494c-0.088,1.805-1.203,2.91-2.985,2.981
		c-1.494,0.061-2.987,0.144-4.482,0.174c-1.786,0.036-2.962-1.029-3.167-2.808c-0.469-4.09,0.856-6.6,4.573-8.422
		c4.648-2.28,9.617-2.507,14.655-2.103c2.685,0.216,5.312,0.771,7.714,2.028c1.102,0.576,2.168,1.302,3.068,2.155
		c2.159,2.048,1.943,4.696,1.439,7.28c-0.237,1.214-1.412,1.895-2.697,1.872c-1.691-0.029-3.385-0.093-5.073-0.202
		c-1.331-0.084-2.347-1.105-2.562-2.52C22.555,13.213,22.553,12.585,22.506,11.898z M28.021,14.122
		c0.002-0.026,0.006-0.052,0.008-0.078c0.669,0.031,1.345,0.13,2.002,0.062c0.283-0.031,0.705-0.373,0.763-0.638
		c0.547-2.576-0.177-4.227-2.466-5.581c-0.807-0.479-1.674-0.89-2.562-1.187c-4.472-1.491-9.06-1.606-13.646-0.771
		C10.287,6.262,8.455,6.894,6.78,7.71c-2.516,1.228-3.241,2.871-2.816,5.615c0.047,0.306,0.544,0.736,0.867,0.769
		c0.814,0.083,1.648-0.036,2.474-0.062c2.372-0.072,2.372-0.068,2.463-2.484c0.005-0.158,0.005-0.315,0.028-0.472
		c0.148-1.035,0.68-1.636,1.793-1.633c3.857,0.008,7.716-0.01,11.573,0.012c1.188,0.006,1.732,0.552,1.84,1.702
		c0.083,0.884-0.163,2.134,0.318,2.559C25.896,14.221,27.094,14.018,28.021,14.122z"/>
	<path fill="#808080" d="M5.797,17.773c0.85,0,1.581,0,2.42,0c-0.322,2.675-0.636,5.277-0.95,7.879
		c-0.047,0.392-0.107,0.779-0.143,1.173c-0.157,1.753,0.62,2.669,2.414,2.679c5.235,0.029,10.472,0.034,15.707-0.002
		c1.827-0.011,2.604-1.021,2.374-2.832c-0.373-2.923-0.727-5.85-1.085-8.743c0.126-0.083,0.188-0.156,0.256-0.163
		c2.104-0.206,2.106-0.206,2.364,1.843c0.303,2.42,0.644,4.836,0.893,7.263c0.281,2.759-1.602,4.985-4.38,5.022
		c-5.511,0.072-11.023,0.069-16.534,0.002c-2.891-0.033-4.755-2.332-4.412-5.209C5.07,23.757,5.428,20.83,5.797,17.773z"/>
	<path fill="#808080" d="M17.325,23.835c-1.153,0.254-1.204-0.427-1.256-1.336c-0.066-1.14,0.484-1.215,1.396-1.26
		c1.178-0.06,1.191,0.565,1.221,1.44C18.721,23.723,18.257,24.004,17.325,23.835z"/>
	<path fill="#808080" d="M22.27,22.689c0.254,1.252-0.58,1.134-1.408,1.19c-1.12,0.074-1.11-0.562-1.166-1.387
		c-0.079-1.147,0.511-1.206,1.416-1.254C22.297,21.18,22.396,21.797,22.27,22.689z"/>
	<path fill="#808080" d="M21.039,27.458c-1.064,0.228-1.354-0.267-1.352-1.287c0.002-0.976,0.307-1.28,1.293-1.298
		c1.049-0.016,1.363,0.314,1.338,1.352C22.297,27.17,22.087,27.68,21.039,27.458z"/>
	<path fill="#808080" d="M17.43,17.639c1.039-0.203,1.228,0.329,1.259,1.257c0.039,1.084-0.389,1.287-1.375,1.315
		c-1.159,0.034-1.206-0.521-1.246-1.426C16.019,17.686,16.543,17.507,17.43,17.639z"/>
	<path fill="#808080" d="M16.124,26.182c-0.264-1.131,0.358-1.279,1.313-1.307c1.03-0.027,1.221,0.407,1.254,1.328
		c0.041,1.091-0.398,1.307-1.384,1.312C16.284,27.523,15.931,27.157,16.124,26.182z"/>
	<path fill="#808080" d="M13.68,20.15c-1.044,0.211-1.27-0.287-1.297-1.237c-0.03-1.079,0.4-1.309,1.385-1.325
		c1.017-0.016,1.252,0.363,1.263,1.305C15.042,19.928,14.725,20.389,13.68,20.15z"/>
	<path fill="#808080" d="M22.018,17.976c0.426,0.972,0.282,1.569-0.16,2.075c-0.271,0.311-1.561,0.215-1.902-0.154
		c-0.354-0.379-0.391-1.684-0.071-1.918C20.436,17.567,21.76,17.389,22.018,17.976z"/>
	<path fill="#808080" d="M13.738,21.301c1.15-0.275,1.27,0.379,1.287,1.307c0.016,0.951-0.269,1.293-1.271,1.285
		c-1.002-0.009-1.387-0.271-1.371-1.322C12.4,21.564,12.667,21.064,13.738,21.301z"/>
	<path fill="#808080" d="M14.976,26.255c0.223,1.091-0.371,1.213-1.272,1.259c-1.104,0.055-1.303-0.414-1.317-1.387
		c-0.016-1.031,0.409-1.232,1.335-1.255C14.799,24.848,15.167,25.258,14.976,26.255z"/>
</g>
</svg>
