<?xml version="1.0" encoding="utf-8"?>
<!-- Generator: Adobe Illustrator 16.0.4, SVG Export Plug-In . SVG Version: 6.00 Build 0)  -->
<!DOCTYPE svg PUBLIC "-//W3C//DTD SVG 1.1//EN" "http://www.w3.org/Graphics/SVG/1.1/DTD/svg11.dtd">
<svg version="1.1" id="Layer_1" xmlns="http://www.w3.org/2000/svg" xmlns:xlink="http://www.w3.org/1999/xlink" x="0px" y="0px"
	 width="500px" height="500px" viewBox="0 0 500 500" enable-background="new 0 0 500 500" xml:space="preserve">
<circle fill="none" stroke="#282D52" stroke-width="18" stroke-miterlimit="10" cx="250.226" cy="249.824" r="237.156"/>
<g>
	<path fill-rule="evenodd" clip-rule="evenodd" fill="#282D52" d="M179.942,389.962c-5.138-0.33-9.413-0.605-14.505-0.932
		c0.494-7.326,0.922-14.377,1.452-21.42c2.549-33.871,5.11-67.742,7.694-101.611c2.851-37.354,5.735-74.707,8.59-112.061
		c0.532-6.973,1.051-13.949,1.471-20.929c1.144-19.009,11.831-29.152,30.808-29.161c2.808-0.001,5.615,0,8.638,0
		c0.285-1.955,0.514-3.519,0.768-5.257c22.477,0,44.748,0,67.375,0c0.209,1.605,0.41,3.167,0.682,5.258
		c1.951,0,3.736-0.012,5.522,0.001c16.061,0.118,27.149,9.941,28.654,26.01c1.723,18.401,2.996,36.844,4.472,55.269
		c2.831,35.353,5.671,70.704,8.499,106.058c1.514,18.922,3.019,37.844,4.501,56.768c0.113,1.451,0.015,2.922,0.015,4.365
		c-4.796,0-9.215,0-14.302,0c-1.269-14.494-2.567-29.34-3.889-44.43c-46.748,0-93.174,0-140.165,0
		C184.138,335.126,182.061,362.28,179.942,389.962z M187.336,292.892c46.398,0,91.974,0,137.918,0
		c-3.131-39.611-6.233-78.882-9.338-118.165c-40.112,0-79.697,0-119.62,0C193.307,214.145,190.339,253.295,187.336,292.892z
		 M224.174,118.464c-4.416,0-8.25-0.165-12.063,0.038c-6.048,0.321-11.101,3.809-11.894,9.547
		c-1.424,10.303-1.941,20.73-2.858,31.337c39.454,0,78.231,0,117.384,0c-0.708-8.425-1.404-16.36-2.035-24.301
		c-1.094-13.757-5.85-17.738-19.881-16.264c-0.188,1.301-0.387,2.688-0.611,4.243c-22.52,0-44.761,0-67.331,0
		C224.652,121.564,224.439,120.18,224.174,118.464z"/>
	<path fill-rule="evenodd" clip-rule="evenodd" fill="#282D52" d="M337.558,388.427c-9.122-0.107-16.258-7.443-16.217-16.672
		c0.042-9.467,7.357-16.656,16.823-16.537c9.048,0.115,16.417,7.598,16.386,16.639C354.519,381.063,346.855,388.536,337.558,388.427
		z"/>
</g>
</svg>
