<?xml version="1.0" encoding="utf-8"?>
<!-- Generator: Adobe Illustrator 16.0.4, SVG Export Plug-In . SVG Version: 6.00 Build 0)  -->
<!DOCTYPE svg PUBLIC "-//W3C//DTD SVG 1.1//EN" "http://www.w3.org/Graphics/SVG/1.1/DTD/svg11.dtd">
<svg version="1.1" id="Layer_1" xmlns="http://www.w3.org/2000/svg" xmlns:xlink="http://www.w3.org/1999/xlink" x="0px" y="0px"
	 width="300px" height="299.567px" viewBox="0 0 300 299.567" enable-background="new 0 0 300 299.567" xml:space="preserve">
<g>
	<path fill-rule="evenodd" clip-rule="evenodd" fill="#252160" d="M107.387,226.073c-16.396-0.87-31.63-5.481-44.962-15.228
		c-9.794-7.16-10.947-12.833-3.587-22.278c8.58-11.009,12.413-22.894,13.833-36.863c4.888-48.067,33.886-80.156,77.744-88.142
		c27.666-5.038,49.621,4.43,66.659,26.227c7.966,10.193,13.28,21.794,17.276,34.048c1.513,4.635,3.099,8.959,7.438,12.303
		c5.844,4.502,4.731,10.295,0.267,15.472c-4.137,4.8-9.375,8.327-15.041,10.929c-32.631,14.993-62.797,34.062-91.924,54.911
		C126.881,223.324,117.729,226.654,107.387,226.073z M79.219,161.637c-0.533,23.021,2.87,27.61,21.908,32.075
		c4.693,1.101,6.998,0.686,5.853-4.865c-1.496-7.258,0.12-14.329,1.818-21.335c0.535-2.208,1.398-4.813,4.412-4.24
		c3.186,0.608,2.71,3.517,2.198,5.579c-2.346,9.43-2.323,18.752,0.021,28.19c1.123,4.515-1.607,5.909-5.635,5.359
		c-12.179-1.662-23.615-5.165-33.399-13.07c-2.067-1.668-3.4-8.74-7.408-2.392c-3.04,4.813-11.618,8.796-4.494,16.525
		c14.486,15.713,48.684,19.893,66.474,7.937c27.189-18.267,54.041-37.032,84.198-50.392c6.826-3.025,13.05-7.508,19.284-11.717
		c3.112-2.102,5.96-5.781,1.317-8.595c-5.288-3.205-6.027-8.35-7.562-13.188c-3.503-11.019-8.129-21.485-14.959-30.807
		c-10.637-14.517-23.775-25.904-42.612-26.894c-31.05-1.632-56.57,9.542-74.246,35.77C84.748,122.845,79.19,142.226,79.219,161.637z
		"/>
	<path fill-rule="evenodd" clip-rule="evenodd" fill="#252160" d="M89.958,161.085c-0.262-19.804,4.264-38.22,16.787-54.076
		c1.916-2.426,3.638-7.06,7.296-4.696c3.974,2.568,0.167,5.77-1.627,8.214c-13.041,17.752-16.728,37.932-15.613,59.384
		c0.102,1.961,0.335,3.917,0.377,5.877c0.052,2.439-0.378,4.815-3.476,4.815c-3.031-0.002-3.644-2.438-3.706-4.8
		C89.866,170.9,89.958,165.993,89.958,161.085z"/>
	<path fill-rule="evenodd" clip-rule="evenodd" fill="#252160" d="M217.588,146.808c0.002,3.012-15.883,13.1-18.84,11.883
		c-2.233-0.92-3.06-3.103-1.444-4.614c4.974-4.656,10.793-8.201,17.298-10.297C216.039,143.318,217.535,144.839,217.588,146.808z"/>
	<path fill-rule="evenodd" clip-rule="evenodd" fill="#252160" d="M160.496,179.87c-0.115,2.746-2.137,3.95-4.188,4.919
		c-5.121,2.422-8.914,7.873-15.429,6.957c-0.639-0.088-1.751-2.571-1.39-3.123c3.542-5.395,9.534-7.503,14.821-10.555
		C156.973,176.531,159.256,176.464,160.496,179.87z"/>
</g>
<circle fill-rule="evenodd" clip-rule="evenodd" fill="none" stroke="#252160" stroke-width="9.8645" stroke-miterlimit="10" cx="149.882" cy="149.135" r="139.52"/>
</svg>
